<?xml version="1.0" encoding="UTF-8" standalone="no"?>
<!-- Created with Inkscape (http://www.inkscape.org/) -->

<svg
   width="106.70175mm"
   height="33.284729mm"
   viewBox="0 0 106.70175 33.284729"
   version="1.1"
   id="svg5"
   xml:space="preserve"
   sodipodi:docname="daly.svg"
   inkscape:version="1.2.1 (9c6d41e410, 2022-07-14)"
   xmlns:inkscape="http://www.inkscape.org/namespaces/inkscape"
   xmlns:sodipodi="http://sodipodi.sourceforge.net/DTD/sodipodi-0.dtd"
   xmlns="http://www.w3.org/2000/svg"
   xmlns:svg="http://www.w3.org/2000/svg"><sodipodi:namedview
     id="namedview7"
     pagecolor="#ffffff"
     bordercolor="#000000"
     borderopacity="0.25"
     inkscape:showpageshadow="2"
     inkscape:pageopacity="0.0"
     inkscape:pagecheckerboard="0"
     inkscape:deskcolor="#d1d1d1"
     inkscape:document-units="mm"
     showgrid="false"
     inkscape:zoom="2"
     inkscape:cx="206.25"
     inkscape:cy="117.75"
     inkscape:window-width="1896"
     inkscape:window-height="1034"
     inkscape:window-x="1932"
     inkscape:window-y="34"
     inkscape:window-maximized="1"
     inkscape:current-layer="layer1" /><defs
     id="defs2"><marker
       style="overflow:visible"
       id="Dot"
       refX="0"
       refY="0"
       orient="auto"
       inkscape:stockid="Dot"
       markerWidth="5.6666665"
       markerHeight="5.6666665"
       viewBox="0 0 5.6666667 5.6666667"
       inkscape:isstock="true"
       inkscape:collect="always"
       preserveAspectRatio="xMidYMid"><path
         transform="scale(0.5)"
         style="fill:context-stroke;fill-rule:evenodd;stroke:context-stroke;stroke-width:1pt"
         d="M 5,0 C 5,2.76 2.76,5 0,5 -2.76,5 -5,2.76 -5,0 c 0,-2.76 2.3,-5 5,-5 2.76,0 5,2.24 5,5 z"
         id="Dot1"
         sodipodi:nodetypes="sssss" /></marker></defs><g
     inkscape:label="Calque 1"
     inkscape:groupmode="layer"
     id="layer1"
     transform="translate(-16.223374,-50.603862)"><g
       id="path1274-5"
       style="opacity:1;fill:#e63946;fill-opacity:0.426708;stroke:#e63846;stroke-width:0.264583;stroke-linecap:round;stroke-dasharray:0.264583, 0.529167;stroke-dashoffset:0;stroke-opacity:0.956863;paint-order:stroke fill markers"
       transform="matrix(0.94166129,0,0,0.94166129,2.7206058,0.87186004)"><path
         style="color:#000000;fill:#e63946;fill-opacity:0.426708;stroke:#e63846;stroke-width:0.264583;stroke-linecap:round;stroke-dasharray:0.264583, 0.529167;stroke-dashoffset:0;stroke-opacity:0.956863;paint-order:stroke fill markers"
         d="m 88.1895,63.022361 v 6.240234 h 18.49554 l 3.70417,-3.120117 -3.70417,-3.120117 z"
         id="path41874"
         sodipodi:nodetypes="cccccc" /><g
         id="g41866"
         style="fill:#e63946;fill-opacity:0.426708;stroke:#e63846;stroke-width:0.264583;stroke-linecap:round;stroke-dasharray:0.264583, 0.529167;stroke-dashoffset:0;stroke-opacity:0.956863;paint-order:stroke fill markers" /></g><text
       xml:space="preserve"
       style="font-style:normal;font-variant:normal;font-weight:bold;font-stretch:normal;font-size:2.28782px;font-family:sans-serif;-inkscape-font-specification:'sans-serif Bold';text-align:start;text-anchor:start;fill:#e63946;fill-opacity:1;stroke:none;stroke-width:0.243749;stroke-linecap:round;stroke-linejoin:bevel;stroke-dasharray:none;stroke-dashoffset:0;stroke-opacity:1;paint-order:stroke markers fill"
       x="86.849556"
       y="63.7994"
       id="text22359-2"><tspan
         sodipodi:role="line"
         id="tspan22357-9"
         style="font-size:2.28782px;stroke:none;stroke-width:0.243749"
         x="86.849556"
         y="63.7994">Décès prématuré</tspan></text><path
       style="color:#000000;fill:#2a9d8f;stroke:#ffffff;stroke-width:0.264583;stroke-dasharray:none;stroke-opacity:1"
       d="m 16.566406,60.035554 v 6.240234 h 66.582031 v -6.240234 z"
       id="path1274" /><path
       style="color:#000000;fill:#e9c46a;stroke:#ffffff;stroke-width:0.264583;stroke-dasharray:none;stroke-opacity:1"
       d="m 62.388672,60.035554 v 6.240234 h 23.183594 v -6.240234 z"
       id="path1274-9" /><rect
       style="fill:#e9c46a;fill-opacity:1;stroke:#ffffff;stroke-width:0.264583;stroke-dasharray:none;stroke-opacity:1"
       id="rect5443"
       width="4"
       height="6.2407227"
       x="46.533024"
       y="60.035309" /><path
       style="fill:#2a9d8f;fill-opacity:1;stroke-width:0.0152367"
       d="m 19.431048,57.360696 c -0.01973,-0.0079 -0.05627,-0.02889 -0.08119,-0.04663 -0.05392,-0.03839 -0.630682,-0.801591 -0.661478,-0.875296 -0.0283,-0.06772 -0.02719,-0.206837 0.0022,-0.27718 0.0332,-0.07947 0.05784,-0.103125 0.357337,-0.343103 0.146653,-0.11751 0.277223,-0.222659 0.290155,-0.233666 0.0203,-0.01728 0.05854,0.01506 0.279953,0.236762 l 0.256439,0.256773 -0.17652,0.141292 c -0.102262,0.08185 -0.17226,0.148294 -0.166393,0.157938 0.0056,0.0092 0.08179,0.112637 0.169381,0.22996 0.186376,0.249645 0.214809,0.305105 0.214809,0.41901 0,0.142739 -0.08575,0.272507 -0.215965,0.326817 -0.06212,0.02591 -0.21212,0.03 -0.268729,0.0073 z m 1.422423,-0.01184 c -0.128065,-0.06111 -0.205947,-0.184595 -0.205361,-0.325619 4.58e-4,-0.110252 0.03062,-0.168525 0.215144,-0.41569 0.08759,-0.117323 0.16381,-0.220805 0.169381,-0.229961 0.0059,-0.0096 -0.06413,-0.07608 -0.166393,-0.157938 l -0.176521,-0.141292 0.25644,-0.256772 c 0.221411,-0.221699 0.259651,-0.254039 0.279952,-0.236762 0.01293,0.01101 0.143502,0.116156 0.290156,0.233666 0.299495,0.239978 0.324131,0.263633 0.357336,0.343103 0.02939,0.07034 0.03049,0.209458 0.0022,0.27718 -0.01176,0.02815 -0.155804,0.230134 -0.320094,0.448859 -0.344775,0.459008 -0.366714,0.478996 -0.533261,0.485856 -0.08179,0.0034 -0.122836,-0.0026 -0.168978,-0.02463 z m -1.473923,-2.574899 -0.004,-0.439427 -0.342827,0.22726 c -0.4307,0.285514 -0.441361,0.291093 -0.556141,0.291093 -0.298561,0 -0.466023,-0.348341 -0.277445,-0.577119 0.05388,-0.06536 1.157241,-0.806502 1.248724,-0.838779 0.08446,-0.0298 1.590135,-0.03062 1.672295,-9.16e-4 0.08725,0.03155 1.194301,0.778213 1.244977,0.839691 0.116374,0.141183 0.105875,0.331786 -0.02575,0.467498 -0.113069,0.116579 -0.272005,0.14464 -0.411679,0.07268 -0.02933,-0.01511 -0.207601,-0.130696 -0.396155,-0.256858 l -0.342827,-0.229385 -0.004,0.441841 -0.004,0.441842 h -0.898507 -0.898506 z m 0.719705,-1.746172 c -0.191676,-0.05384 -0.383625,-0.210171 -0.461518,-0.375873 -0.22903,-0.487218 0.111694,-1.034395 0.644111,-1.034395 0.254539,0 0.474025,0.120139 0.612404,0.335208 0.139467,0.21676 0.138378,0.542005 -0.0026,0.761621 -0.09808,0.152844 -0.275463,0.280478 -0.443706,0.319265 -0.08995,0.02074 -0.264561,0.01782 -0.348742,-0.0058 z"
       id="path8541" /><path
       style="fill:#2a9d8f;fill-opacity:1;stroke-width:0.0166245"
       d="m 37.274799,58.195694 c -0.08559,-0.03985 -0.151672,-0.109009 -0.19225,-0.201196 -0.01761,-0.04 -0.02356,-0.454501 -0.03024,-2.106298 l -0.0083,-2.056498 -0.173711,0.475466 c -0.09554,0.261506 -0.189234,0.498498 -0.208202,0.526646 -0.137916,0.204653 -0.452041,0.170439 -0.548179,-0.05971 -0.01419,-0.03399 -0.02582,-0.08827 -0.02582,-0.120605 0,-0.06283 0.529992,-1.536224 0.608061,-1.690427 0.06,-0.118511 0.255733,-0.310032 0.375628,-0.367545 0.186281,-0.08936 0.239471,-0.09536 0.845009,-0.09536 0.623086,0 0.667403,0.0057 0.867138,0.110611 0.13179,0.06925 0.290699,0.22845 0.35531,0.355949 0.02308,0.04557 0.168942,0.428303 0.324117,0.850526 0.194959,0.530482 0.28202,0.788472 0.281768,0.834984 -0.0011,0.25977 -0.288711,0.408451 -0.497297,0.257352 -0.08575,-0.06212 -0.09743,-0.08698 -0.293583,-0.625432 l -0.164666,-0.452005 -0.0083,2.064586 -0.0083,2.064586 -0.03693,0.06904 c -0.142422,0.266336 -0.519007,0.270791 -0.656416,0.0078 l -0.04644,-0.08892 v -1.254035 -1.25401 l -0.04081,-0.0408 c -0.04904,-0.04904 -0.09167,-0.05171 -0.144379,-0.009 l -0.03925,0.03177 -0.0083,1.288455 -0.0083,1.288457 -0.04998,0.07207 c -0.06358,0.09169 -0.198361,0.163578 -0.306274,0.163348 -0.04486,-1.26e-4 -0.110828,-0.0164 -0.161054,-0.03977 z m 0.504255,-5.895682 c -0.189259,-0.03182 -0.399947,-0.17598 -0.51169,-0.350121 -0.150055,-0.233837 -0.154159,-0.572054 -0.0099,-0.818156 0.05826,-0.09942 0.217268,-0.242841 0.330361,-0.297982 0.282234,-0.13761 0.609311,-0.0863 0.845851,0.132693 0.169797,0.157204 0.247874,0.336504 0.247874,0.569228 0,0.305893 -0.167484,0.573158 -0.438713,0.700082 -0.155724,0.07287 -0.296493,0.09238 -0.463749,0.06426 z"
       id="path8555" /><path
       style="fill:#e9c46a;fill-opacity:1;stroke-width:0.0144251"
       d="m 73.53784,57.706263 c -0.07427,-0.03458 -0.131606,-0.09459 -0.166813,-0.174578 -0.0153,-0.03471 -0.02046,-0.394373 -0.02625,-1.82764 l -0.0072,-1.78443 -0.150726,0.412564 c -0.08291,0.226909 -0.164201,0.432547 -0.180659,0.456971 -0.11967,0.177579 -0.392238,0.147892 -0.475655,-0.05181 -0.01231,-0.02949 -0.02241,-0.07659 -0.02241,-0.10465 0,-0.05452 0.459874,-1.332986 0.527615,-1.466788 0.05206,-0.102833 0.2219,-0.269015 0.325934,-0.31892 0.161635,-0.07754 0.207788,-0.08274 0.733215,-0.08274 0.540657,0 0.579107,0.0049 0.752421,0.09598 0.114354,0.06009 0.25224,0.198227 0.308301,0.308858 0.02003,0.03954 0.146591,0.37164 0.281236,0.738003 0.16917,0.460301 0.24471,0.68416 0.244492,0.724518 -0.0013,0.225404 -0.250513,0.354415 -0.431506,0.223306 -0.07441,-0.0539 -0.08454,-0.07548 -0.254739,-0.542689 l -0.142882,-0.392207 -0.0072,1.791447 -0.0072,1.791446 -0.03204,0.05992 c -0.123579,0.231101 -0.450343,0.234966 -0.56957,0.0068 l -0.04031,-0.07716 v -1.088108 -1.088107 l -0.03541,-0.03541 c -0.04255,-0.04255 -0.07954,-0.04487 -0.125274,-0.0078 l -0.03406,0.02757 -0.0072,1.117996 -0.0072,1.117998 -0.04336,0.06254 c -0.05517,0.07956 -0.172123,0.141936 -0.265755,0.141737 -0.03893,-1.09e-4 -0.09617,-0.01423 -0.13975,-0.03451 z m 0.437547,-5.115699 c -0.164221,-0.02761 -0.347035,-0.152699 -0.443995,-0.3038 -0.130203,-0.202901 -0.133765,-0.496373 -0.0086,-0.709918 0.05055,-0.08627 0.18852,-0.210712 0.286655,-0.258559 0.244895,-0.119405 0.528697,-0.07488 0.733943,0.115139 0.147337,0.136406 0.215085,0.291984 0.215085,0.49392 0,0.265424 -0.145327,0.497331 -0.380676,0.607463 -0.135119,0.06323 -0.257268,0.08016 -0.402393,0.05576 z"
       id="path8555-3" /><path
       style="fill:#e9c46a;fill-opacity:1;stroke-width:0.0115222"
       d="m 76.491843,56.00603 c 0.02205,-0.01108 0.05198,-0.03793 0.06649,-0.05965 l 0.02641,-0.03951 -0.0029,-1.27979 -0.003,-1.27979 -0.02585,-0.06337 c -0.05231,-0.128263 -0.164189,-0.23991 -0.291018,-0.290409 -0.05108,-0.02033 -0.08685,-0.02523 -0.18436,-0.02523 -0.09751,0 -0.133282,0.0049 -0.184356,0.02523 -0.127258,0.05067 -0.239788,0.163209 -0.290383,0.290409 -0.03397,0.08541 -0.04497,0.379807 -0.01629,0.435317 0.03709,0.07172 0.136191,0.1074 0.212989,0.07667 0.08281,-0.03313 0.09852,-0.06862 0.105179,-0.237495 0.0049,-0.123955 0.0094,-0.150883 0.02953,-0.177881 0.04342,-0.05815 0.08071,-0.07804 0.144507,-0.07709 0.06336,9.55e-4 0.100203,0.02094 0.142126,0.07708 0.02357,0.03156 0.0238,0.04176 0.02953,1.284534 0.0055,1.182484 0.0069,1.254499 0.02654,1.284445 0.04712,0.07189 0.137406,0.09561 0.215189,0.05653 z"
       id="path8591"
       sodipodi:nodetypes="sscccssssssssscsssss" /><path
       style="fill:#e9c46a;fill-opacity:1;stroke-width:0.0177561"
       d="m 61.017773,57.826837 c -0.08487,-0.03704 -0.179009,-0.154428 -0.202424,-0.252421 -0.01881,-0.07871 -0.0098,-0.156348 0.09526,-0.820369 0.06382,-0.403385 0.116042,-0.758266 0.116042,-0.78862 0,-0.03755 -0.108809,-0.260037 -0.340356,-0.695945 -0.263091,-0.495304 -0.341985,-0.658889 -0.347574,-0.720653 -0.0054,-0.05987 0.04212,-0.277154 0.189561,-0.866582 0.10823,-0.432675 0.212229,-0.816964 0.231112,-0.853977 0.136951,-0.268446 0.539454,-0.346927 0.813223,-0.158566 0.11082,0.07625 0.146408,0.133655 0.403033,0.650182 l 0.229872,0.462687 0.164952,0.04576 c 0.09073,0.02517 0.172811,0.04576 0.182412,0.04576 0.01118,0 0.01923,-0.371854 0.02247,-1.034298 l 0.005,-1.034295 0.06424,-0.133171 c 0.256954,-0.532693 0.973838,-0.612088 1.33223,-0.147549 0.08024,0.104013 0.157197,0.29327 0.157197,0.386611 0,0.108222 0.0095,0.116061 0.141555,0.116061 0.09242,0 0.130199,0.008 0.16438,0.03491 0.08171,0.06427 0.08673,0.102695 0.08109,0.620358 l -0.0053,0.484091 -0.05799,0.05179 c -0.05529,0.04937 -0.06571,0.05178 -0.223826,0.05178 h -0.165837 l -0.01087,0.116573 c -0.01267,0.13598 0.01343,0.445958 0.0515,0.61143 0.01461,0.06348 0.05848,0.213696 0.09748,0.333815 0.159238,0.490405 0.09313,0.867708 -0.204721,1.16845 -0.218027,0.220145 -0.496297,0.323445 -0.90622,0.336404 l -0.213072,0.0067 v 0.715306 0.715302 l 0.19251,0.0089 c 0.175382,0.0081 0.195531,0.0126 0.226393,0.0508 0.01862,0.02306 0.03388,0.06562 0.03388,0.09459 0,0.06744 -0.08546,0.156472 -0.150189,0.156472 -0.04035,0 -0.04399,0.0045 -0.028,0.03435 0.0306,0.05717 0.02087,0.11979 -0.02758,0.177367 -0.115153,0.136851 -0.338529,0.0034 -0.274814,-0.164236 l 0.01804,-0.04748 h -0.14788 -0.147885 l 0.0084,0.08746 c 0.0073,0.07633 0.0023,0.09327 -0.03731,0.133171 -0.06375,0.06375 -0.172959,0.06375 -0.236712,0 -0.03968,-0.03968 -0.04463,-0.05704 -0.03746,-0.131506 0.0079,-0.08242 0.0063,-0.08618 -0.0417,-0.09578 -0.123046,-0.02461 -0.169564,-0.184248 -0.0753,-0.258398 0.04015,-0.03158 0.07163,-0.0368 0.221953,-0.0368 h 0.175171 v -0.760115 -0.760118 l -0.108844,-0.06998 c -0.293357,-0.188644 -0.451969,-0.550302 -0.471932,-1.076127 l -0.0099,-0.260394 -0.07452,-0.02846 c -0.09356,-0.03573 -0.150933,-0.09646 -0.219195,-0.232024 -0.0341,-0.06773 -0.05705,-0.09683 -0.06299,-0.0799 -0.0259,0.0738 -0.140228,0.619982 -0.139835,0.668049 2.4e-4,0.03051 0.08228,0.290186 0.182286,0.577076 0.125766,0.360772 0.181878,0.546252 0.181981,0.601515 8.8e-5,0.08032 -0.294792,1.688182 -0.323541,1.763801 -0.02514,0.0662 -0.107474,0.153054 -0.180207,0.190159 -0.07925,0.04043 -0.228537,0.0453 -0.309204,0.0101 z M 63.51685,55.6274 c 0.314981,-0.102791 0.528182,-0.327709 0.599397,-0.632322 0.04118,-0.176154 0.01575,-0.403824 -0.07573,-0.67708 -0.101413,-0.303027 -0.137363,-0.512992 -0.137363,-0.802157 v -0.2277 h -0.13493 c -0.163063,0 -0.241652,-0.03218 -0.280971,-0.115033 -0.03881,-0.08179 -0.04151,-0.936915 -0.0031,-1.02849 0.03815,-0.09125 0.08902,-0.117166 0.23009,-0.117166 h 0.122653 l -0.0086,-0.07618 c -0.02632,-0.233611 -0.237952,-0.420995 -0.47545,-0.420995 -0.180157,0 -0.327962,0.08884 -0.417865,0.251151 l -0.05268,0.09509 -0.005,1.049339 -0.005,1.049342 0.07121,0.04712 c 0.09782,0.06473 0.149315,0.16973 0.138496,0.282368 -0.0096,0.09967 -0.05037,0.163633 -0.143444,0.224914 l -0.06519,0.04292 v 0.558581 0.558583 l 0.253028,-0.0087 c 0.206395,-0.0071 0.278365,-0.01698 0.390528,-0.05358 z m -0.952181,-1.091259 c -0.0088,-0.0088 -0.403662,-0.128064 -0.426513,-0.128826 -0.02705,-9.54e-4 0.0034,0.424392 0.04183,0.580931 0.05893,0.241212 0.171063,0.436267 0.309243,0.537905 l 0.07334,0.05394 0.0047,-0.518316 c 0.0023,-0.285074 0.0015,-0.521611 -0.0023,-0.525632 z m 1.512503,-1.704326 0.0053,-0.09232 0.09232,-0.0053 0.09233,-0.0053 v -0.0799 -0.07991 l -0.09322,-0.0054 -0.09322,-0.0054 v -0.08785 -0.08785 h -0.08878 -0.08878 v 0.08878 0.08878 h -0.08879 -0.08878 v 0.08878 0.08878 h 0.08878 0.08879 v 0.0873 c 0,0.09651 0.01179,0.10787 0.106535,0.102599 0.06186,-0.0034 0.06217,-0.0039 0.06748,-0.09578 z M 61.256175,52.37653 c -0.128013,-0.05266 -0.215963,-0.123275 -0.291035,-0.233663 -0.237593,-0.349349 -0.08615,-0.818182 0.313592,-0.970854 0.136772,-0.05224 0.360861,-0.04033 0.497327,0.02644 0.122066,0.05972 0.250236,0.194285 0.312383,0.327957 0.0395,0.08496 0.04718,0.126158 0.04704,0.252457 -1.76e-4,0.128231 -0.0078,0.167702 -0.05112,0.262472 -0.06535,0.143043 -0.216971,0.287568 -0.35639,0.339734 -0.139286,0.05211 -0.33875,0.05019 -0.471795,-0.0046 z"
       id="path8619"
       sodipodi:nodetypes="csssscscsscssscsssscscsscssssscccssssssscccssssssscccsscssscscsscccssscsssscssscccssscccsccsscsccssccccccccccccccccccccsscccsssscsscc" /><text
       xml:space="preserve"
       style="font-size:5.03734px;opacity:1;fill:#2a9d8f;fill-opacity:1;stroke:none;stroke-width:25.9546;stroke-dasharray:none;stroke-opacity:1"
       x="374.5386"
       y="81.362419"
       id="text8791"><tspan
         sodipodi:role="line"
         style="font-style:normal;font-variant:normal;font-weight:bold;font-stretch:normal;font-family:sans-serif;-inkscape-font-specification:'sans-serif Bold';text-align:end;text-anchor:end;fill:#2a9d8f;fill-opacity:1;stroke-width:25.9546"
         x="374.5386"
         y="81.362419"
         id="tspan10714" /></text><text
       xml:space="preserve"
       style="font-style:normal;font-variant:normal;font-weight:bold;font-stretch:normal;font-size:2.25778px;font-family:sans-serif;-inkscape-font-specification:'sans-serif Bold';text-align:end;text-anchor:end;opacity:1;fill:#2a9d8f;fill-opacity:1;stroke:#2a9d8f;stroke-width:2.75444;stroke-linecap:round;stroke-linejoin:round;stroke-dasharray:2.75444, 5.50887;stroke-dashoffset:0;stroke-opacity:1"
       x="116.38385"
       y="53.921589"
       id="text10720"><tspan
         sodipodi:role="line"
         id="tspan10718"
         style="font-size:2.25778px;text-align:center;text-anchor:middle;stroke:none;stroke-width:2.75444"
         x="116.38385"
         y="53.921589">Espérance de </tspan><tspan
         sodipodi:role="line"
         style="font-size:2.25778px;text-align:center;text-anchor:middle;stroke:none;stroke-width:2.75444"
         x="116.38385"
         y="56.743813"
         id="tspan10722">vie attendue</tspan></text><path
       style="fill:#e9c46a;fill-opacity:1;stroke-width:0.016537"
       d="m 50.838323,58.061575 c -0.08788,-0.03132 -0.174988,-0.105279 -0.215925,-0.183315 -0.03376,-0.06437 -0.03437,-0.08729 -0.0425,-1.66666 l -0.0082,-1.601393 -0.0464,-0.0399 c -0.05684,-0.04889 -0.09309,-0.05025 -0.149811,-0.0056 l -0.04358,0.03428 v 1.702111 1.702113 h -1.571014 -1.57102 V 57.55772 57.112226 l 0.797913,-0.0053 c 0.773848,-0.0051 0.800555,-0.0064 0.885648,-0.04111 0.126281,-0.05154 0.220289,-0.135863 0.285434,-0.256019 0.05285,-0.09747 0.05676,-0.115076 0.05646,-0.253575 -1.83e-4,-0.121238 -0.0074,-0.16305 -0.03815,-0.2255 -0.06073,-0.12313 -0.143287,-0.206518 -0.262626,-0.265266 -0.10797,-0.05315 -0.113658,-0.05405 -0.398879,-0.06271 l -0.28935,-0.0088 -0.294357,-1.171544 c -0.161892,-0.644347 -0.298856,-1.185729 -0.304358,-1.203066 -0.0098,-0.03084 0.01983,-0.03153 1.352765,-0.03153 1.307964,0 1.368036,0.0013 1.493581,0.03306 0.348485,0.08808 0.624337,0.313941 0.777612,0.636687 0.1193,0.251212 0.11241,0.141451 0.118209,1.882939 0.0045,1.35828 0.0019,1.580134 -0.01969,1.653703 -0.06466,0.2209 -0.29887,0.343281 -0.511736,0.267399 z m -4.980926,-1.12214 c -0.0048,-0.01253 -0.0062,-0.550392 -0.0031,-1.195242 0.0051,-1.056835 0.0085,-1.18224 0.03453,-1.271678 0.06729,-0.230924 0.208106,-0.460618 0.364096,-0.593885 0.04884,-0.04172 0.09361,-0.07586 0.0995,-0.07586 0.0059,0 0.0088,0.708819 0.0065,1.575151 l -0.0042,1.575152 -0.24427,0.0046 c -0.195419,0.0037 -0.246017,1.6e-5 -0.253014,-0.01821 z m 0.65844,-1.611128 0.0042,-1.633031 0.140565,-0.04889 c 0.134308,-0.04671 0.155468,-0.04917 0.475439,-0.05521 0.184181,-0.0035 0.334874,-0.0034 0.334874,1.83e-4 0,0.0036 0.189745,0.761462 0.421655,1.684111 0.231908,0.92265 0.421671,1.679406 0.421692,1.681679 1.5e-5,0.0023 -0.405564,0.0041 -0.901306,0.0041 h -0.901349 l 0.0042,-1.633031 z m 1.955592,1.614206 c -0.0256,-0.06677 -0.200563,-0.775599 -0.193228,-0.782931 0.01611,-0.01612 0.398189,-0.0086 0.482511,0.0095 0.245715,0.0527 0.381293,0.325241 0.275169,0.553144 -0.07245,0.155595 -0.184785,0.219945 -0.409362,0.234494 -0.117728,0.0076 -0.147766,0.0049 -0.15509,-0.01421 z m -0.01373,-3.594992 c -0.482757,-0.09127 -0.857528,-0.449717 -0.972472,-0.930115 -0.02822,-0.117934 -0.03308,-0.179078 -0.02659,-0.33449 0.01384,-0.331533 0.125164,-0.579746 0.368408,-0.821448 0.115031,-0.1143 0.162498,-0.147981 0.307524,-0.218204 0.270119,-0.130792 0.515514,-0.164473 0.788085,-0.108171 0.26438,0.05461 0.462002,0.166747 0.65452,0.371396 0.220102,0.233964 0.325684,0.501123 0.326985,0.82734 0.0015,0.361961 -0.130031,0.664186 -0.395747,0.909735 -0.276306,0.255329 -0.684039,0.373281 -1.05071,0.303957 z"
       id="path22355" /><text
       xml:space="preserve"
       style="font-style:normal;font-variant:normal;font-weight:bold;font-stretch:normal;font-size:2.28782px;font-family:sans-serif;-inkscape-font-specification:'sans-serif Bold';text-align:start;text-anchor:start;opacity:1;fill:#264653;fill-opacity:1;stroke:none;stroke-width:0.243749;stroke-linecap:round;stroke-linejoin:bevel;stroke-dasharray:none;stroke-dashoffset:0;stroke-opacity:1;paint-order:stroke markers fill"
       x="21.575651"
       y="64.020584"
       id="text22359"><tspan
         sodipodi:role="line"
         id="tspan22357"
         style="font-size:2.28782px;fill:#264653;fill-opacity:1;stroke:none;stroke-width:0.243749"
         x="21.575651"
         y="64.020584">Vie en bonne santé</tspan></text><text
       xml:space="preserve"
       style="font-style:normal;font-variant:normal;font-weight:bold;font-stretch:normal;font-size:2.28782px;font-family:sans-serif;-inkscape-font-specification:'sans-serif Bold';text-align:start;text-anchor:start;fill:#e76f51;fill-opacity:1;stroke:none;stroke-width:0.243749;stroke-linecap:round;stroke-linejoin:bevel;stroke-dasharray:none;stroke-dashoffset:0;stroke-opacity:1;paint-order:stroke markers fill"
       x="63.209999"
       y="63.798847"
       id="text22359-3"><tspan
         sodipodi:role="line"
         id="tspan22357-6"
         style="font-size:2.28782px;fill:#e76f51;fill-opacity:1;stroke:none;stroke-width:0.243749"
         x="63.209999"
         y="63.798847">Vie avec un handicap</tspan></text><path
       style="opacity:1;fill:none;fill-opacity:1;stroke:#2a9d8f;stroke-width:0.9;stroke-linecap:round;stroke-linejoin:round;stroke-dasharray:none;stroke-dashoffset:0;stroke-opacity:1;marker-end:url(#Dot);paint-order:stroke markers fill"
       d="m 116.26631,58.310885 v 4.7625 h -6.31718"
       id="path28065"
       sodipodi:nodetypes="ccc" /><text
       xml:space="preserve"
       style="font-style:normal;font-variant:normal;font-weight:bold;font-stretch:normal;font-size:2.28782px;font-family:sans-serif;-inkscape-font-specification:'sans-serif Bold';text-align:center;text-anchor:middle;opacity:1;fill:#e9c46a;fill-opacity:1;stroke:none;stroke-width:0.38148;stroke-linecap:round;stroke-linejoin:bevel;stroke-dasharray:none;stroke-dashoffset:0;stroke-opacity:1;paint-order:stroke markers fill"
       x="48.322906"
       y="68.657478"
       id="text30876"><tspan
         sodipodi:role="line"
         id="tspan30874"
         style="fill:#e9c46a;fill-opacity:1;stroke:none;stroke-width:0.38148"
         x="48.322906"
         y="68.657478">4 ans</tspan></text><text
       xml:space="preserve"
       style="font-style:normal;font-variant:normal;font-weight:bold;font-stretch:normal;font-size:2.28782px;font-family:sans-serif;-inkscape-font-specification:'sans-serif Bold';text-align:center;text-anchor:middle;fill:#e9c46a;fill-opacity:1;stroke:none;stroke-width:0.38148;stroke-linecap:round;stroke-linejoin:bevel;stroke-dasharray:none;stroke-dashoffset:0;stroke-opacity:1;paint-order:stroke markers fill"
       x="31.55043"
       y="83.866249"
       id="text30876-2"><tspan
         sodipodi:role="line"
         id="tspan30874-2"
         style="fill:#e9c46a;fill-opacity:1;stroke:none;stroke-width:0.38148"
         x="31.55043"
         y="83.866249">4 + 23 = 27 ans</tspan></text><text
       xml:space="preserve"
       style="font-style:normal;font-variant:normal;font-weight:bold;font-stretch:normal;font-size:2.28782px;font-family:sans-serif;-inkscape-font-specification:'sans-serif Bold';text-align:center;text-anchor:middle;fill:#e63846;fill-opacity:0.956863;stroke:none;stroke-width:0.38148;stroke-linecap:round;stroke-linejoin:bevel;stroke-dasharray:none;stroke-dashoffset:0;stroke-opacity:1;paint-order:stroke markers fill"
       x="70.793991"
       y="83.866249"
       id="text30876-2-8"><tspan
         sodipodi:role="line"
         id="tspan30874-2-9"
         style="fill:#e63846;fill-opacity:0.956863;stroke:none;stroke-width:0.38148"
         x="70.793991"
         y="83.866249">63 - 90 = 27 ans</tspan></text><text
       xml:space="preserve"
       style="font-style:normal;font-variant:normal;font-weight:bold;font-stretch:normal;font-size:2.28782px;font-family:sans-serif;-inkscape-font-specification:'sans-serif Bold';text-align:center;text-anchor:middle;fill:#e63846;fill-opacity:0.956863;stroke:none;stroke-width:0.38148;stroke-linecap:round;stroke-linejoin:bevel;stroke-dasharray:none;stroke-dashoffset:0;stroke-opacity:1;paint-order:stroke markers fill"
       x="101.82709"
       y="83.866249"
       id="text30876-2-8-1"><tspan
         sodipodi:role="line"
         id="tspan30874-2-9-9"
         style="fill:#e63846;fill-opacity:0.956863;stroke:none;stroke-width:0.38148"
         x="101.82709"
         y="83.866249"><tspan
   style="fill:#e9c46a;fill-opacity:1"
   id="tspan40850">27</tspan> <tspan
   style="fill:#999999"
   id="tspan40852">+</tspan> 27 <tspan
   style="fill:#999999"
   id="tspan41062">= 54 ans</tspan></tspan></text><text
       xml:space="preserve"
       style="font-style:normal;font-variant:normal;font-weight:bold;font-stretch:normal;font-size:7.0201px;font-family:sans-serif;-inkscape-font-specification:'sans-serif Bold';text-align:center;text-anchor:middle;fill:#999999;fill-opacity:0.956863;stroke:none;stroke-width:1.17056;stroke-linecap:round;stroke-linejoin:bevel;stroke-dasharray:none;stroke-dashoffset:0;stroke-opacity:1;paint-order:stroke markers fill"
       x="54.390888"
       y="79.534683"
       id="text30876-2-8-7"><tspan
         sodipodi:role="line"
         id="tspan30874-2-9-3"
         style="fill:#999999;fill-opacity:0.956863;stroke:none;stroke-width:1.17056"
         x="54.390888"
         y="79.534683">+</tspan></text><text
       xml:space="preserve"
       style="font-style:normal;font-variant:normal;font-weight:bold;font-stretch:normal;font-size:7.0201px;font-family:sans-serif;-inkscape-font-specification:'sans-serif Bold';text-align:center;text-anchor:middle;fill:#999999;fill-opacity:0.956863;stroke:none;stroke-width:1.17056;stroke-linecap:round;stroke-linejoin:bevel;stroke-dasharray:none;stroke-dashoffset:0;stroke-opacity:1;paint-order:stroke markers fill"
       x="86.850105"
       y="79.438705"
       id="text30876-2-8-7-6"><tspan
         sodipodi:role="line"
         id="tspan30874-2-9-3-1"
         style="fill:#999999;fill-opacity:0.956863;stroke:none;stroke-width:1.17056"
         x="86.850105"
         y="79.438705">=</tspan></text><text
       xml:space="preserve"
       style="font-style:normal;font-variant:normal;font-weight:bold;font-stretch:normal;font-size:2.28782px;font-family:sans-serif;-inkscape-font-specification:'sans-serif Bold';text-align:center;text-anchor:middle;fill:#e9c46a;fill-opacity:1;stroke:none;stroke-width:0.38148;stroke-linecap:round;stroke-linejoin:bevel;stroke-dasharray:none;stroke-dashoffset:0;stroke-opacity:1;paint-order:stroke markers fill"
       x="73.893082"
       y="68.610016"
       id="text30876-0"><tspan
         sodipodi:role="line"
         id="tspan30874-6"
         style="fill:#e9c46a;fill-opacity:1;stroke:none;stroke-width:0.38148"
         x="73.893082"
         y="68.610016">23 ans</tspan></text><text
       xml:space="preserve"
       style="font-style:normal;font-variant:normal;font-weight:bold;font-stretch:normal;font-size:1.8119px;font-family:sans-serif;-inkscape-font-specification:'sans-serif Bold';text-align:center;text-anchor:middle;fill:#ffffff;fill-opacity:1;stroke:none;stroke-width:0.302123;stroke-linecap:round;stroke-linejoin:bevel;stroke-dasharray:none;stroke-dashoffset:0;stroke-opacity:1;paint-order:stroke markers fill"
       x="109.79982"
       y="62.537663"
       id="text30876-0-8"><tspan
         sodipodi:role="line"
         id="tspan30874-6-7"
         style="fill:#ffffff;fill-opacity:1;stroke:none;stroke-width:0.302123"
         x="109.79982"
         y="62.537663">90</tspan><tspan
         sodipodi:role="line"
         style="fill:#ffffff;fill-opacity:1;stroke:none;stroke-width:0.302123"
         x="109.79982"
         y="64.802536"
         id="tspan32832">ans</tspan></text><g
       id="g40848"
       transform="translate(0,-0.15866322)"><g
         id="g33458"
         transform="matrix(0.83231646,0,0,0.83231646,14.40324,8.8774539)"><path
           style="fill:#e63946;fill-opacity:0.956863;stroke-width:0.0193688"
           d="m 81.627813,57.883925 c -0.0852,-0.04491 -0.144242,-0.103726 -0.186128,-0.185401 -0.03601,-0.07022 -0.03697,-0.13909 -0.03204,-2.366177 l 0.0051,-2.293853 0.05811,-0.08226 c 0.179681,-0.254363 0.558952,-0.216297 0.689941,0.06924 0.02907,0.06333 0.03559,0.127363 0.03597,0.350748 l 3.82e-4,0.273275 1.341347,0.776472 c 0.737744,0.427061 1.37618,0.791315 1.418765,0.809452 0.04258,0.01813 0.138431,0.05097 0.213003,0.07296 0.132763,0.03915 0.18393,0.0402 2.460712,0.05035 2.209645,0.0099 2.327808,0.01212 2.37914,0.04577 0.108386,0.07104 0.108882,0.07643 0.108882,1.180409 v 1.013685 l -0.04906,0.09846 c -0.06252,0.125464 -0.16932,0.202158 -0.29884,0.214603 -0.145454,0.01398 -0.219973,-0.0081 -0.317769,-0.0942 -0.136817,-0.120432 -0.147819,-0.178205 -0.147819,-0.776521 v -0.500126 l -3.549337,0.0049 -3.54934,0.0049 -0.0097,0.555239 -0.0097,0.555237 -0.05891,0.08377 c -0.08341,0.118599 -0.184037,0.170732 -0.328465,0.170163 -0.06772,-2.31e-4 -0.140461,-0.01324 -0.174321,-0.03109 z m 3.630076,-2.956333 c -0.175099,-0.05969 -1.005076,-0.558313 -1.09498,-0.657829 -0.105239,-0.116481 -0.149341,-0.23227 -0.149341,-0.392055 0,-0.232643 0.119937,-0.42305 0.331761,-0.526686 0.08878,-0.04344 0.134174,-0.05307 0.245219,-0.05202 0.127521,0.0011 0.178582,0.01781 0.794813,0.258516 0.3622,0.14148 0.710838,0.273646 0.774755,0.293705 0.06391,0.02005 0.865787,0.141192 1.781933,0.269181 0.916147,0.12799 1.688662,0.241862 1.716708,0.253051 0.231677,0.09243 0.253864,0.43518 0.03609,0.557571 l -0.07299,0.04102 -2.11825,-4.58e-4 -2.11825,-4.58e-4 z M 83.06762,53.715914 c -0.06034,-0.01999 -0.139904,-0.05502 -0.176816,-0.07783 -0.101706,-0.06286 -0.224241,-0.205656 -0.281761,-0.328363 -0.04522,-0.09647 -0.05146,-0.133615 -0.05093,-0.303609 3.81e-4,-0.173499 0.0065,-0.205758 0.05676,-0.309479 0.274093,-0.565133 1.077741,-0.561623 1.34377,0.0059 0.04556,0.09719 0.05152,0.133474 0.05146,0.313293 -5.7e-5,0.186175 -0.0048,0.212818 -0.05655,0.315049 -0.07022,0.138804 -0.228842,0.291275 -0.370501,0.356128 -0.146957,0.06728 -0.363123,0.07942 -0.515436,0.02894 z m 3.427973,-0.571876 c -0.162976,-0.04444 -0.296135,-0.180014 -0.34474,-0.350984 -0.01553,-0.05474 -0.02026,-0.378789 -0.01606,-1.104024 0.0059,-1.01368 0.0065,-1.027542 0.0484,-1.105856 0.02335,-0.04362 0.07378,-0.106831 0.112091,-0.140466 0.141906,-0.124595 0.06758,-0.119181 1.635651,-0.119181 h 1.427123 l 0.10242,0.05104 c 0.109168,0.0544 0.195382,0.153862 0.238299,0.274919 0.03655,0.103123 0.03655,2.07281 0,2.175933 -0.04223,0.119121 -0.132587,0.224864 -0.240928,0.28196 l -0.10187,0.05368 -1.38487,0.0039 c -1.072645,0.003 -1.405307,-0.0016 -1.47551,-0.02087 z"
           id="path20875"
           sodipodi:nodetypes="csscssccsssssscsssscccccsccccssscsssssccccsssccssssssccsssscsssscccc" /><path
           id="path14616"
           style="opacity:1;fill:#ffffff;fill-opacity:1;stroke:#ffffff;stroke-width:0.121692;stroke-linecap:round;stroke-linejoin:bevel;stroke-dasharray:none;stroke-dashoffset:0;stroke-opacity:1;paint-order:stroke markers fill"
           d="m 87.448735,51.888862 -0.10065,-0.500087 c -0.01385,-0.06876 -0.02731,-0.134985 -0.03981,-0.195813 -0.01247,-0.06083 -0.02403,-0.116296 -0.03399,-0.163491 -0.01,-0.04719 -0.01839,-0.08614 -0.02464,-0.114004 -0.0031,-0.01393 -0.0056,-0.02506 -0.0076,-0.0331 -0.0019,-0.008 -0.0034,-0.01297 -0.004,-0.01438 -0.0011,-0.0028 -0.0027,-0.0056 -0.0043,-0.0083 -0.0015,-0.0026 -0.0031,-0.005 -0.0049,-0.0072 -0.0015,-0.0021 -0.0034,-0.004 -0.0048,-0.0054 -0.0015,-0.0014 -0.0031,-0.0024 -0.0042,-0.0028 -0.0019,-6.1e-4 -0.0038,-0.0011 -0.0055,-0.0013 -0.0011,-1.01e-4 -0.0019,-1.02e-4 -0.0027,-6.4e-5 -7.63e-4,7.3e-5 -0.0015,2.07e-4 -0.0027,4.96e-4 -7.63e-4,3.16e-4 -0.0015,7.25e-4 -0.0027,0.0013 -7.63e-4,4.96e-4 -0.0015,0.0013 -0.0027,0.0021 -7.63e-4,8.01e-4 -0.0015,0.0019 -0.0027,0.0031 -7.63e-4,0.0012 -0.0015,0.0026 -0.0027,0.0042 -0.0019,0.0032 -0.0034,0.0073 -0.0053,0.01239 -0.0019,0.0051 -0.0039,0.0112 -0.0059,0.01852 -0.0023,0.0073 -0.0043,0.01585 -0.0066,0.02574 -0.0023,0.0099 -0.0049,0.02117 -0.0077,0.034 -0.0027,0.01283 -0.0057,0.02723 -0.0089,0.04336 -0.0031,0.01613 -0.0066,0.03396 -0.01034,0.05374 -0.0074,0.03957 -0.01598,0.08682 -0.02598,0.143167 -0.01,0.05635 -0.02136,0.121813 -0.03452,0.197815 -0.01316,0.076 -0.02808,0.162581 -0.04503,0.261107 -0.01846,0.107391 -0.03616,0.209885 -0.05245,0.303238 -0.01629,0.09335 -0.03117,0.17756 -0.04375,0.248334 -0.01259,0.07077 -0.02296,0.128097 -0.03033,0.167747 -0.0038,0.01983 -0.0066,0.03524 -0.0087,0.04568 -0.0023,0.01045 -0.0034,0.01594 -0.0038,0.01594 -2.63e-4,-6e-6 -0.0019,-0.0039 -0.0042,-0.01116 -0.0023,-0.0073 -0.0058,-0.01804 -0.01007,-0.03187 -0.0085,-0.02767 -0.02052,-0.06766 -0.03517,-0.117036 -0.01465,-0.04937 -0.03197,-0.108119 -0.05097,-0.173233 -0.019,-0.06512 -0.03977,-0.136595 -0.06136,-0.211492 -0.02159,-0.0749 -0.04247,-0.14666 -0.06168,-0.212203 -0.01923,-0.06554 -0.03674,-0.124904 -0.05174,-0.175039 -0.01499,-0.05014 -0.02747,-0.09107 -0.03643,-0.119747 -0.0045,-0.01434 -0.0081,-0.02558 -0.0108,-0.03342 -0.0027,-0.0078 -0.0043,-0.01225 -0.0049,-0.01284 -0.0019,-0.0018 -0.0038,-0.0034 -0.0059,-0.0046 -0.0023,-0.0012 -0.0043,-0.0021 -0.0066,-0.0028 -0.0023,-6.11e-4 -0.0045,-10e-4 -0.0068,-10e-4 -0.0023,-4.7e-5 -0.0045,2.07e-4 -0.0068,7.24e-4 -0.0023,4.96e-4 -0.0044,0.0013 -0.0064,0.0023 -0.0023,0.001 -0.004,0.0023 -0.0058,0.0039 -0.0019,0.0016 -0.0034,0.0033 -0.0048,0.0054 -0.0011,0.002 -0.0027,0.0043 -0.0034,0.0068 -0.0011,0.0026 -0.0031,0.0117 -0.0066,0.02587 -0.0034,0.01417 -0.0076,0.03344 -0.0127,0.05639 -0.01011,0.0459 -0.02308,0.106598 -0.03647,0.170975 -0.01335,0.06438 -0.02647,0.1265 -0.03677,0.174716 -0.0103,0.04822 -0.01781,0.08252 -0.02007,0.09129 l -0.0082,0.03194 h -0.09336 -0.09323 v 0.06813 h 0.11 c 0.02007,0 0.03712,-2.06e-4 0.05162,-6.1e-4 0.0145,-4.2e-4 0.02636,-0.001 0.03601,-0.0019 0.0048,-4.2e-4 0.0091,-9.16e-4 0.01282,-0.0016 0.0038,-6.11e-4 0.0069,-0.0013 0.0097,-0.002 0.0027,-7.25e-4 0.0051,-0.0015 0.0069,-0.0024 0.0019,-9.15e-4 0.0031,-0.0018 0.0043,-0.0028 7.63e-4,-8.01e-4 0.0019,-0.0031 0.0031,-0.0068 0.0011,-0.0037 0.0031,-0.0088 0.0048,-0.01516 0.0038,-0.01267 0.0083,-0.03026 0.01354,-0.05149 0.0052,-0.02123 0.01099,-0.04607 0.01709,-0.07329 0.0061,-0.02722 0.01251,-0.05683 0.01884,-0.08749 0.0063,-0.03066 0.01255,-0.05975 0.01839,-0.08607 0.0058,-0.02632 0.01125,-0.04988 0.01598,-0.06949 0.0047,-0.01961 0.0088,-0.03527 0.0119,-0.04581 0.0015,-0.0053 0.0031,-0.0092 0.0039,-0.01181 3.82e-4,-0.0013 0.0011,-0.0022 0.0011,-0.0027 2.63e-4,-4.95e-4 3.81e-4,-7.24e-4 7.63e-4,-4.95e-4 2.63e-4,4.19e-4 0.0019,0.0048 0.0045,0.01252 0.0027,0.0078 0.0061,0.01898 0.01045,0.03329 0.0088,0.02864 0.02102,0.06963 0.03594,0.119941 0.01492,0.05031 0.03243,0.109973 0.05168,0.175878 0.01923,0.0659 0.04022,0.138063 0.062,0.213492 0.03563,0.123461 0.06379,0.220323 0.08626,0.296141 0.01121,0.03791 0.02102,0.07055 0.02968,0.09865 0.0087,0.0281 0.01606,0.05167 0.02258,0.07136 0.0065,0.01969 0.01202,0.03552 0.01686,0.04819 0.0023,0.0063 0.0047,0.01186 0.0067,0.01671 0.0023,0.0049 0.004,0.009 0.0058,0.01258 0.0019,0.0035 0.0034,0.0064 0.005,0.0088 0.0015,0.0024 0.0031,0.0042 0.0045,0.0057 0.0011,0.0014 0.0027,0.0024 0.004,0.0031 0.0011,6.11e-4 0.0027,9.16e-4 0.0039,9.16e-4 0.0011,3.1e-5 0.0027,-2.07e-4 0.0042,-9.16e-4 0.0011,-7.25e-4 0.0027,-0.0019 0.0042,-0.0037 0.0011,-0.0018 0.0027,-0.004 0.0043,-0.007 0.0015,-0.0031 0.0031,-0.0068 0.0047,-0.01142 0.0015,-0.0046 0.0034,-0.01 0.0052,-0.01639 0.0019,-0.0064 0.0038,-0.01381 0.0059,-0.02232 0.0023,-0.0085 0.0043,-0.01816 0.0067,-0.02903 0.0023,-0.01088 0.005,-0.02301 0.0077,-0.03652 0.0055,-0.02702 0.01183,-0.05955 0.01911,-0.09871 0.0073,-0.03916 0.01553,-0.08493 0.02502,-0.138393 0.019,-0.106919 0.04287,-0.244632 0.07336,-0.421629 0.01808,-0.104928 0.03548,-0.205056 0.05142,-0.296269 0.01595,-0.09122 0.03044,-0.173499 0.04278,-0.242657 0.01232,-0.06916 0.02247,-0.12519 0.02968,-0.163941 0.0034,-0.01937 0.0064,-0.03444 0.0085,-0.04465 0.0023,-0.0102 0.0034,-0.01555 0.0034,-0.01555 2.64e-4,0 0.0011,0.003 0.0027,0.0088 0.0015,0.0058 0.0034,0.01444 0.006,0.02548 0.005,0.0221 0.01175,0.05406 0.02007,0.09349 0.0083,0.03943 0.01804,0.08632 0.02865,0.138328 0.0106,0.05201 0.02216,0.109085 0.03414,0.16891 0.01194,0.05983 0.02361,0.11727 0.03452,0.169877 0.01087,0.05261 0.02098,0.100409 0.02976,0.140909 0.0088,0.0405 0.01621,0.07372 0.02182,0.09723 0.0027,0.01175 0.0051,0.02109 0.0069,0.02768 0.0019,0.0066 0.0031,0.01042 0.0038,0.01123 3.81e-4,6.1e-4 0.0019,0.0012 0.0039,0.0018 0.0023,4.96e-4 0.0053,0.0011 0.0095,0.0016 0.0042,4.96e-4 0.0095,10e-4 0.01598,0.0014 0.0065,4.2e-4 0.01434,8.01e-4 0.02354,0.0012 0.01843,8.01e-4 0.04247,0.0015 0.07362,0.0021 0.03113,6.1e-4 0.06937,0.0011 0.115943,0.0016 0.04656,4.19e-4 0.101454,7.24e-4 0.166134,0.001 0.06468,3.16e-4 0.139103,4.96e-4 0.224589,6.1e-4 2.469985,-0.03068 1.057477,-0.06762 -0.58788,-0.06762 z"
           sodipodi:nodetypes="cscsccssccscccccccscsscssscssscsccssssssscsccccccccsscsccccscccccccsssscscccccccssssccccscccccccssccccsscscscccscccscscscccssccc" /></g><text
         xml:space="preserve"
         style="font-style:normal;font-variant:normal;font-weight:bold;font-stretch:normal;font-size:1.8119px;font-family:sans-serif;-inkscape-font-specification:'sans-serif Bold';text-align:center;text-anchor:middle;fill:#e63846;fill-opacity:0.956863;stroke:none;stroke-width:0.302123;stroke-linecap:round;stroke-linejoin:bevel;stroke-dasharray:none;stroke-dashoffset:0;stroke-opacity:1;paint-order:stroke markers fill"
         x="85.874245"
         y="58.530125"
         id="text30876-0-8-9"><tspan
           sodipodi:role="line"
           style="fill:#e63846;fill-opacity:0.956863;stroke:none;stroke-width:0.302123"
           x="85.874245"
           y="58.530125"
           id="tspan32832-0">63 ans</tspan></text></g><text
       xml:space="preserve"
       style="font-style:normal;font-variant:normal;font-weight:bold;font-stretch:normal;font-size:2.28782px;font-family:sans-serif;-inkscape-font-specification:'sans-serif Bold';text-align:start;text-anchor:start;fill:#e9c46a;fill-opacity:1;stroke:none;stroke-width:0.243749;stroke-linecap:round;stroke-linejoin:bevel;stroke-dasharray:none;stroke-dashoffset:0;stroke-opacity:1;paint-order:stroke markers fill"
       x="16.22114"
       y="76.39196"
       id="text22359-3-2"><tspan
         sodipodi:role="line"
         style="font-size:2.28782px;fill:#e9c46a;fill-opacity:1;stroke:none;stroke-width:0.243749"
         x="16.22114"
         y="76.39196"
         id="tspan35821">Années vécues avec un handicap</tspan><tspan
         sodipodi:role="line"
         style="font-size:2.28782px;fill:#e9c46a;fill-opacity:1;stroke:none;stroke-width:0.243749"
         x="16.22114"
         y="79.251732"
         id="tspan36577">YLD (Years Lived with Disability)</tspan></text><text
       xml:space="preserve"
       style="font-style:normal;font-variant:normal;font-weight:bold;font-stretch:normal;font-size:2.28782px;font-family:sans-serif;-inkscape-font-specification:'sans-serif Bold';text-align:start;text-anchor:start;fill:#e63846;fill-opacity:0.956863;stroke:none;stroke-width:0.243749;stroke-linecap:round;stroke-linejoin:bevel;stroke-dasharray:none;stroke-dashoffset:0;stroke-opacity:1;paint-order:stroke markers fill"
       x="58.819614"
       y="76.39196"
       id="text22359-3-2-7"><tspan
         sodipodi:role="line"
         style="font-size:2.28782px;fill:#e63846;fill-opacity:0.956863;stroke:none;stroke-width:0.243749"
         x="58.819614"
         y="76.39196"
         id="tspan35821-5">Années de vie perdues</tspan><tspan
         sodipodi:role="line"
         style="font-size:2.28782px;fill:#e63846;fill-opacity:0.956863;stroke:none;stroke-width:0.243749"
         x="58.819614"
         y="79.251732"
         id="tspan36577-9">YLL (Years of Life Lost)</tspan></text><text
       xml:space="preserve"
       style="font-style:normal;font-variant:normal;font-weight:bold;font-stretch:normal;font-size:2.28782px;font-family:sans-serif;-inkscape-font-specification:'sans-serif Bold';text-align:start;text-anchor:start;fill:#999999;fill-opacity:0.956863;stroke:none;stroke-width:0.243749;stroke-linecap:round;stroke-linejoin:bevel;stroke-dasharray:none;stroke-dashoffset:0;stroke-opacity:1;paint-order:stroke markers fill"
       x="92.857063"
       y="76.436646"
       id="text22359-3-2-7-2"><tspan
         sodipodi:role="line"
         style="font-size:2.28782px;fill:#999999;fill-opacity:0.956863;stroke:none;stroke-width:0.243749"
         x="92.857063"
         y="76.436646"
         id="tspan40810">DALY (Disability </tspan><tspan
         sodipodi:role="line"
         style="font-size:2.28782px;fill:#999999;fill-opacity:0.956863;stroke:none;stroke-width:0.243749"
         x="92.857063"
         y="79.296417"
         id="tspan40814">Adjusted Life Years)</tspan></text></g></svg>
