<?xml version="1.0" encoding="UTF-8"?>
<svg width="16.26mm" height="17.74mm" version="1.1" viewBox="0 0 16.26 17.74" xmlns="http://www.w3.org/2000/svg"><g transform="translate(-92.12 -108.1)"><g fill="#eee8d5" stroke-width=".03222"><path d="m105.9 111.3h0.3559a0.2521 0.2521 0 0 1 0.2519 0.2522v0.512a0.2519 0.2519 0 0 1-0.2037 0.2471v0.5575a0.1857 0.1857 0 0 1-0.1855 0.1857h-0.081a0.186 0.186 0 0 1-0.1315-0.0542 0.1857 0.1857 0 0 1-0.0545-0.1315v-0.5583a0.2521 0.2521 0 0 1-0.2037-0.2474v-0.512a0.2519 0.2519 0 0 1 0.2521-0.2514z"/><path d="m106.3 111a0.2453 0.2453 0 0 1-0.245 0.245 0.245 0.245 0 0 1-0.245-0.245 0.245 0.245 0 0 1 0.245-0.2453c0.1355 0 0.2453 0.1098 0.2453 0.2453"/><path d="m107.3 113.7h0.3559a0.2521 0.2521 0 0 1 0.2519 0.2522v0.512a0.2521 0.2521 0 0 1-0.2037 0.2471v0.5575a0.1857 0.1857 0 0 1-0.1857 0.186h-0.081a0.1857 0.1857 0 0 1-0.1857-0.186v-0.5583a0.2519 0.2519 0 0 1-0.2037-0.2474v-0.512a0.2519 0.2519 0 0 1 0.2519-0.2511z"/><path d="m107.7 113.4a0.2453 0.2453 0 1 1-0.4903 0 0.2453 0.2453 0 0 1 0.4905 0"/><path d="m107.8 116.6h0.3559a0.2521 0.2521 0 0 1 0.2522 0.2521v0.512a0.2521 0.2521 0 0 1-0.2037 0.2471v0.5575a0.186 0.186 0 0 1-0.1857 0.186h-0.081a0.1857 0.1857 0 0 1-0.186-0.186v-0.5583a0.2521 0.2521 0 0 1-0.2037-0.2474v-0.512a0.2521 0.2521 0 0 1 0.2521-0.2514z"/><path d="m108.2 116.3a0.245 0.245 0 0 1-0.245 0.245 0.245 0.245 0 0 1-0.2453-0.245 0.2453 0.2453 0 0 1 0.4903 0"/><path d="m107.1 119.4h0.3559a0.2521 0.2521 0 0 1 0.2519 0.2519v0.5122a0.2521 0.2521 0 0 1-0.2037 0.2471v0.5575a0.186 0.186 0 0 1-0.1857 0.186h-0.0812a0.186 0.186 0 0 1-0.1857-0.186v-0.5583a0.2521 0.2521 0 0 1-0.2037-0.2474v-0.5122a0.2519 0.2519 0 0 1 0.2524-0.2508z"/><path d="m107.6 119.1a0.245 0.245 0 0 1-0.245 0.245 0.2453 0.2453 0 0 1 0-0.4903 0.245 0.245 0 0 1 0.245 0.2453"/><path d="m105.6 121.8h0.3561a0.2521 0.2521 0 0 1 0.2519 0.2522v0.512a0.2519 0.2519 0 0 1-0.2037 0.2471v0.5577a0.1857 0.1857 0 0 1-0.1855 0.1857h-0.0812a0.1857 0.1857 0 0 1-0.1857-0.186v-0.5583a0.2521 0.2521 0 0 1-0.2037-0.2471v-0.5122a0.2519 0.2519 0 0 1 0.2521-0.2511z"/><path d="m106 121.4a0.245 0.245 0 0 1-0.2453 0.2453 0.2453 0.2453 0 0 1 0-0.4905 0.245 0.245 0 0 1 0.2453 0.2453"/></g><path d="m103.3 123.4h0.3561c0.0667 0 0.131 0.0265 0.1781 0.0738a0.2519 0.2519 0 0 1 0.0741 0.1781v0.5122a0.2521 0.2521 0 0 1-0.2037 0.2471v0.5575a0.1857 0.1857 0 0 1-0.0545 0.1315 0.1857 0.1857 0 0 1-0.1312 0.0545h-0.0812a0.1857 0.1857 0 0 1-0.1857-0.186v-0.5583a0.2521 0.2521 0 0 1-0.2037-0.2474v-0.512a0.2521 0.2521 0 0 1 0.2522-0.2514z" fill="#c89108" stroke-width=".03222"/><path d="m103.7 123a0.245 0.245 0 0 1-0.2453 0.2453 0.245 0.245 0 0 1-0.2453-0.245 0.2453 0.2453 0 0 1 0.4905 0" fill="#c89108" stroke-width=".03222"/><g fill="#eee8d5" stroke-width=".03222"><path d="m100.5 124.1h0.3561c0.0667 0 0.131 0.0265 0.1781 0.0741a0.2516 0.2516 0 0 1 0.0741 0.1781v0.512a0.2521 0.2521 0 0 1-0.2037 0.2474v0.5575a0.1857 0.1857 0 0 1-0.186 0.1857h-0.081a0.186 0.186 0 0 1-0.1857-0.1857v-0.5588a0.2521 0.2521 0 0 1-0.2037-0.2471v-0.5122a0.2521 0.2521 0 0 1 0.2522-0.2511z"/><path d="m100.9 123.8a0.245 0.245 0 0 1-0.245 0.2453 0.245 0.245 0 0 1-0.2453-0.2453 0.245 0.245 0 0 1 0.2453-0.245 0.245 0.245 0 0 1 0.2453 0.245"/><path d="m97.6 123.7h0.3559a0.2521 0.2521 0 0 1 0.2521 0.2519v0.5122a0.2521 0.2521 0 0 1-0.2037 0.2471v0.5575a0.1857 0.1857 0 0 1-0.1857 0.186h-0.08096a0.1857 0.1857 0 0 1-0.186-0.186v-0.5583a0.2521 0.2521 0 0 1-0.2037-0.2474v-0.5125a0.2521 0.2521 0 0 1 0.2521-0.2508z"/><path d="m98.02 123.4a0.245 0.245 0 0 1-0.2453 0.2453 0.245 0.245 0 0 1-0.245-0.2453 0.2453 0.2453 0 0 1 0.4903 0"/><path d="m95.13 122.3h0.3561a0.2521 0.2521 0 0 1 0.2521 0.2522v0.512a0.2519 0.2519 0 0 1-0.2037 0.2471v0.5575a0.1857 0.1857 0 0 1-0.1857 0.1857h-0.08123a0.1857 0.1857 0 0 1-0.1857-0.1857v-0.5583a0.2521 0.2521 0 0 1-0.2037-0.2474v-0.512a0.2521 0.2521 0 0 1 0.2521-0.2514z"/><path d="m95.56 122a0.245 0.245 0 0 1-0.245 0.2453 0.245 0.245 0 0 1-0.245-0.2453 0.245 0.245 0 0 1 0.245-0.2453 0.245 0.245 0 0 1 0.2453 0.2453"/><path d="m93.32 120.2h0.3559a0.2521 0.2521 0 0 1 0.2521 0.2519v0.5122a0.2521 0.2521 0 0 1-0.2037 0.2471v0.5575a0.1857 0.1857 0 0 1-0.1857 0.186h-0.08123a0.1857 0.1857 0 0 1-0.1857-0.186v-0.5583a0.2521 0.2521 0 0 1-0.2037-0.2474v-0.512a0.2521 0.2521 0 0 1 0.2521-0.2514z"/><path d="m93.75 119.9a0.245 0.245 0 0 1-0.2453 0.245 0.245 0.245 0 0 1-0.245-0.245 0.2453 0.2453 0 0 1 0.4903 0"/><path d="m92.37 117.5h0.3561-2.65e-4a0.2519 0.2519 0 0 1 0.2521 0.2519v0.5122a0.2521 0.2521 0 0 1-0.2037 0.2469v0.5575a0.1857 0.1857 0 0 1-0.1857 0.186h-0.08123a0.1857 0.1857 0 0 1-0.1857-0.186v-0.5583a0.2519 0.2519 0 0 1-0.2037-0.2471v-0.5122a0.2519 0.2519 0 0 1 0.2521-0.2508z"/><path d="m92.8 117.2a0.245 0.245 0 0 1-0.245 0.2453 0.2453 0.2453 0 0 1 0-0.4903 0.245 0.245 0 0 1 0.245 0.245"/><path d="m92.48 114.6h0.3559c0.06694 0 0.131 0.0265 0.1783 0.0736a0.2524 0.2524 0 0 1 0.07382 0.1783v0.5122a0.2519 0.2519 0 0 1-0.2037 0.2468v0.5578a0.186 0.186 0 0 1-0.05424 0.1315 0.186 0.186 0 0 1-0.1315 0.0542h-0.08123a0.1857 0.1857 0 0 1-0.1857-0.186v-0.5583a0.2516 0.2516 0 0 1-0.2037-0.2471v-0.5122a0.2519 0.2519 0 0 1 0.2521-0.2508z"/><path d="m92.9 114.3a0.245 0.245 0 0 1-0.2453 0.245 0.2453 0.2453 0 0 1 0-0.4903 0.245 0.245 0 0 1 0.2453 0.2453"/><path d="m93.6 112h0.3559c0.06694 0 0.131 0.0265 0.1783 0.0738a0.2516 0.2516 0 0 1 0.07382 0.1781v0.5122a0.2521 0.2521 0 0 1-0.2037 0.2471v0.5575a0.186 0.186 0 0 1-0.1857 0.1857h-0.08123a0.1857 0.1857 0 0 1-0.1857-0.1857v-0.5583a0.2521 0.2521 0 0 1-0.2037-0.2474v-0.512a0.2521 0.2521 0 0 1 0.2521-0.2514z"/><path d="m94.03 111.7a0.245 0.245 0 0 1-0.2453 0.245 0.245 0.245 0 0 1-0.245-0.245 0.245 0.245 0 0 1 0.245-0.2453 0.245 0.245 0 0 1 0.2453 0.2453"/></g><path d="m95.55 110h0.3561a0.2521 0.2521 0 0 1 0.2519 0.2522v0.512a0.2519 0.2519 0 0 1-0.2037 0.2471v0.5575a0.186 0.186 0 0 1-0.1857 0.186h-0.08096a0.186 0.186 0 0 1-0.186-0.186v-0.5583a0.2521 0.2521 0 0 1-0.2037-0.2474v-0.512a0.2521 0.2521 0 0 1 0.2521-0.2514z" fill="#c89108" stroke-width=".03222"/><path d="m95.98 109.7a0.2453 0.2453 0 0 1-0.245 0.2453 0.245 0.245 0 0 1-0.2453-0.2453 0.245 0.245 0 0 1 0.2453-0.245c0.1352 0 0.245 0.1098 0.245 0.245" fill="#c89108" stroke-width=".03222"/><g fill="#eee8d5" stroke-width=".03222"><path d="m98.12 108.8h0.3559c0.06694 0 0.131 0.0265 0.1783 0.0741a0.2516 0.2516 0 0 1 0.07382 0.1781v0.512a0.2521 0.2521 0 0 1-0.2037 0.2471v0.5575a0.186 0.186 0 0 1-0.1857 0.186h-0.08096a0.1857 0.1857 0 0 1-0.186-0.186v-0.5583a0.2521 0.2521 0 0 1-0.2037-0.2474v-0.512a0.2521 0.2521 0 0 1 0.2521-0.2511z"/><path d="m98.54 108.5a0.245 0.245 0 0 1-0.2453 0.245 0.245 0.245 0 0 1-0.245-0.245 0.245 0.245 0 0 1 0.245-0.2453 0.245 0.245 0 0 1 0.2453 0.2453"/><path d="m101 108.7h0.3559a0.2521 0.2521 0 0 1 0.2519 0.2519v0.5122a0.2521 0.2521 0 0 1-0.2037 0.2471v0.5575a0.1857 0.1857 0 0 1-0.1855 0.186h-0.0812a0.1857 0.1857 0 0 1-0.1857-0.186v-0.5583a0.2521 0.2521 0 0 1-0.2037-0.2474v-0.5122a0.2519 0.2519 0 0 1 0.2522-0.2508z"/><path d="m101.5 108.3a0.2453 0.2453 0 0 1-0.4905 0 0.2453 0.2453 0 0 1 0.4905 0"/></g><path d="m103.7 109.5h0.3559c0.1392 0 0.2519 0.1127 0.2519 0.2519v0.5122a0.2521 0.2521 0 0 1-0.2037 0.2468v0.5577a0.1857 0.1857 0 0 1-0.1857 0.1857h-0.081a0.1857 0.1857 0 0 1-0.186-0.1857v-0.5588a0.2521 0.2521 0 0 1-0.2037-0.2471v-0.512a0.2521 0.2521 0 0 1 0.2524-0.2514z" fill="#c89108" stroke-width=".03222"/><path d="m104.1 109.2a0.245 0.245 0 0 1-0.245 0.2453 0.245 0.245 0 0 1-0.2453-0.2453 0.245 0.245 0 0 1 0.2453-0.245 0.245 0.245 0 0 1 0.245 0.245" fill="#c89108" stroke-width=".03222"/><g fill="#eee8d5" stroke-width=".03222"><path d="m104.5 113.3h0.3479a0.2463 0.2463 0 0 1 0.2466 0.2466v0.5003a0.2466 0.2466 0 0 1-0.1992 0.2418v0.545a0.1818 0.1818 0 0 1-0.1818 0.1815h-0.0794 2.6e-4a0.1818 0.1818 0 0 1-0.1818-0.1818v-0.5458a0.2461 0.2461 0 0 1-0.199-0.2416v-0.5006a0.2461 0.2461 0 0 1 0.2463-0.2453z"/><path d="m104.9 113a0.2397 0.2397 0 0 1-0.2397 0.2397 0.2397 0.2397 0 0 1-0.2397-0.2397 0.2397 0.2397 0 0 1 0.4794 0"/><path d="m105.4 115.7h0.3477a0.2463 0.2463 0 0 1 0.2466 0.2466v0.5003a0.2463 0.2463 0 0 1-0.199 0.2418v0.545a0.1818 0.1818 0 0 1-0.1818 0.1815h-0.0794a0.1815 0.1815 0 0 1-0.1283-0.0532 0.1815 0.1815 0 0 1-0.0532-0.1283v-0.5461a0.2463 0.2463 0 0 1-0.1992-0.2416v-0.5006a0.2463 0.2463 0 0 1 0.2466-0.2455z"/><path d="m105.8 115.4a0.2397 0.2397 0 1 1-0.4792 0 0.2397 0.2397 0 0 1 0.4789 0"/></g><path d="m105 118.3h0.3477a0.2463 0.2463 0 0 1 0.2466 0.2463v0.5006a0.2461 0.2461 0 0 1-0.199 0.2416v0.545a0.1818 0.1818 0 0 1-0.1818 0.1815h-0.0794a0.1818 0.1818 0 0 1-0.1815-0.1815v-0.5461a0.2463 0.2463 0 0 1-0.1992-0.2413v-0.5008a0.2466 0.2466 0 0 1 0.2466-0.2453z" fill="#c89108" stroke-width=".03222"/><path d="m105.4 118a0.2397 0.2397 0 1 1-0.2397-0.2394 0.2397 0.2397 0 0 1 0.2397 0.2397" fill="#c89108" stroke-width=".03222"/><g fill="#eee8d5" stroke-width=".03222"><path d="m103.6 120.4h0.3477a0.2463 0.2463 0 0 1 0.2466 0.2463v0.5006a0.2463 0.2463 0 0 1-0.1992 0.2416v0.545a0.1815 0.1815 0 0 1-0.1818 0.1815h-0.0794 2.6e-4a0.1818 0.1818 0 0 1-0.1818-0.1815v-0.5458a0.2461 0.2461 0 0 1-0.199-0.2416v-0.5006a0.2463 0.2463 0 0 1 0.2466-0.2455z"/><path d="m104 120.1a0.2397 0.2397 0 0 1-0.2397 0.2397 0.2397 0.2397 0 1 1 0-0.4794 0.2397 0.2397 0 0 1 0.2397 0.2397"/><path d="m101.3 121.6h0.3479a0.2463 0.2463 0 0 1 0.2463 0.2466v0.5003a0.2466 0.2466 0 0 1-0.199 0.2418v0.545a0.1818 0.1818 0 0 1-0.1815 0.1815h-0.0794a0.1818 0.1818 0 0 1-0.1815-0.1818v-0.5458a0.2463 0.2463 0 0 1-0.1992-0.2416v-0.5006a0.2463 0.2463 0 0 1 0.2463-0.2453z"/><path d="m101.7 121.2a0.2394 0.2394 0 0 1-0.2397 0.2397 0.2397 0.2397 0 1 1 0.2397-0.2397"/></g><path d="m98.64 121.5h0.3479a0.2463 0.2463 0 0 1 0.2463 0.2466v0.5003a0.2466 0.2466 0 0 1-0.199 0.2416v0.545a0.1818 0.1818 0 0 1-0.1818 0.1818h-0.07937a0.1818 0.1818 0 0 1-0.1815-0.1818v-0.5458a0.2461 0.2461 0 0 1-0.199-0.2418v-0.5003a0.2463 0.2463 0 0 1 0.2463-0.2455z" fill="#c89108" stroke-width=".03222"/><path d="m99.05 121.2a0.2397 0.2397 0 0 1-0.2394 0.2397 0.2397 0.2397 0 0 1-0.2397-0.2397 0.2397 0.2397 0 0 1 0.4792 0" fill="#c89108" stroke-width=".03222"/><g fill="#eee8d5" stroke-width=".03222"><path d="m96.4 120.3h0.3479c0.06535 0 0.1278 0.0259 0.1741 0.072a0.2469 0.2469 0 0 1 0.07223 0.1744v0.5006a0.2466 0.2466 0 0 1-0.199 0.2416v0.545a0.1815 0.1815 0 0 1-0.1818 0.1815h-0.07937a0.1815 0.1815 0 0 1-0.1815-0.1818v-0.5458a0.2463 0.2463 0 0 1-0.199-0.2416v-0.5006a0.2463 0.2463 0 0 1 0.2463-0.2453z"/><path d="m96.82 120a0.2397 0.2397 0 0 1-0.4792 0 0.2397 0.2397 0 1 1 0.4792 0"/><path d="m94.98 118.2h0.3479a0.2461 0.2461 0 0 1 0.2463 0.2463v0.5006a0.2463 0.2463 0 0 1-0.199 0.2416v0.545a0.1818 0.1818 0 0 1-0.1815 0.1818h-0.07937a0.1818 0.1818 0 0 1-0.1815-0.1818v-0.5458a0.2466 0.2466 0 0 1-0.1992-0.2418v-0.5003a0.2463 0.2463 0 0 1 0.2463-0.2455z"/><path d="m95.4 117.9a0.2397 0.2397 0 1 1-0.4794 0 0.2397 0.2397 0 0 1 0.4794 0"/></g><g stroke-width=".03222"><path d="m94.7 115.6h0.3477a0.2463 0.2463 0 0 1 0.2466 0.2463v0.5006a0.2463 0.2463 0 0 1-0.199 0.2416v0.545a0.1818 0.1818 0 0 1-0.1818 0.1815h-0.07937a0.1815 0.1815 0 0 1-0.1815-0.1815v-0.5461a0.2463 0.2463 0 0 1-0.1992-0.2413v-0.5006a0.2463 0.2463 0 0 1 0.2466-0.2455z" fill="#c89108"/><path d="m95.11 115.3a0.2397 0.2397 0 1 1-0.4792 0 0.2397 0.2397 0 0 1 0.4792 0" fill="#c89108"/><path d="m95.65 113.2h0.3479a0.2463 0.2463 0 0 1 0.2466 0.2466v0.5003a0.2466 0.2466 0 0 1-0.1992 0.2418v0.545a0.1818 0.1818 0 0 1-0.1818 0.1815h-0.07937 2.65e-4a0.1818 0.1818 0 0 1-0.1818-0.1818v-0.5458a0.2461 0.2461 0 0 1-0.199-0.2416v-0.5006a0.2461 0.2461 0 0 1 0.2463-0.2455z" fill="#eee8d5"/><path d="m96.07 112.9a0.2397 0.2397 0 0 1-0.4792 0 0.2397 0.2397 0 0 1 0.2397-0.24 0.2397 0.2397 0 0 1 0.2397 0.2397" fill="#eee8d5"/><path d="m97.56 111.5h0.3479a0.2461 0.2461 0 0 1 0.2463 0.2463v0.5006a0.2463 0.2463 0 0 1-0.199 0.2416v0.545a0.182 0.182 0 0 1-0.05292 0.1283 0.1818 0.1818 0 0 1-0.1289 0.0532h-0.07937a0.1815 0.1815 0 0 1-0.1815-0.1815v-0.5464a0.2463 0.2463 0 0 1-0.199-0.2413v-0.5006a0.2463 0.2463 0 0 1 0.2463-0.2455z" fill="#c89108"/><path d="m97.98 111.2a0.2397 0.2397 0 1 1-0.4794 0 0.2397 0.2397 0 0 1 0.4792 0" fill="#c89108"/></g><g fill="#eee8d5" stroke-width=".03222"><path d="m100.1 110.9h0.3479a0.2463 0.2463 0 0 1 0.2463 0.2466v0.5006a0.2461 0.2461 0 0 1-0.199 0.2413v0.545a0.1818 0.1818 0 0 1-0.1815 0.1818h-0.0794a0.1815 0.1815 0 0 1-0.1815-0.1818v-0.5458a0.2463 0.2463 0 0 1-0.1992-0.2416v-0.5006a0.2466 0.2466 0 0 1 0.2463-0.2455z"/><path d="m100.5 110.6a0.2397 0.2397 0 0 1-0.4794 0 0.2397 0.2397 0 0 1 0.2397-0.2397 0.2397 0.2397 0 0 1 0.2397 0.2397"/><path d="m102.6 111.6h0.3479a0.2461 0.2461 0 0 1 0.2463 0.2466v0.5003a0.2463 0.2463 0 0 1-0.199 0.2416v0.545a0.1818 0.1818 0 0 1-0.1815 0.1818h-0.0794a0.1818 0.1818 0 0 1-0.1815-0.1818v-0.5458a0.2466 0.2466 0 0 1-0.1992-0.2418v-0.5003a0.2463 0.2463 0 0 1 0.2463-0.2455z"/><path d="m103 111.3a0.2394 0.2394 0 0 1-0.2394 0.2397 0.2397 0.2397 0 1 1 0.2397-0.2397"/></g><path d="m103.7 109.5h0.3559c0.1392 0 0.2519 0.1127 0.2519 0.2519v0.5122a0.2521 0.2521 0 0 1-0.2037 0.2468v0.5577a0.1857 0.1857 0 0 1-0.1857 0.1857h-0.081a0.1857 0.1857 0 0 1-0.186-0.1857v-0.5588a0.2521 0.2521 0 0 1-0.2037-0.2471v-0.512a0.2521 0.2521 0 0 1 0.2524-0.2514z" fill="#c89108" stroke-width=".03222"/><path d="m104.1 109.2a0.245 0.245 0 0 1-0.245 0.2453 0.245 0.245 0 0 1-0.2453-0.2453 0.245 0.245 0 0 1 0.2453-0.245 0.245 0.245 0 0 1 0.245 0.245" fill="#c89108" stroke-width=".03222"/><g fill="#eee8d5" stroke-width=".03222"><path d="m103.2 115.7h0.3479a0.2463 0.2463 0 0 1 0.2463 0.2466v0.5003a0.2466 0.2466 0 0 1-0.199 0.2416v0.545a0.1818 0.1818 0 0 1-0.1818 0.1818h-0.0794a0.1818 0.1818 0 0 1-0.1815-0.1818v-0.5458a0.2463 0.2463 0 0 1-0.199-0.2416v-0.5006a0.2463 0.2463 0 0 1 0.2463-0.2455z"/><path d="m103.6 115.4a0.2397 0.2397 0 1 1-0.4794 0 0.2397 0.2397 0 0 1 0.4794 0"/><path d="m102.4 118.4h0.3479a0.2463 0.2463 0 0 1 0.2463 0.2463v0.5006a0.2466 0.2466 0 0 1-0.199 0.2416v0.545a0.1815 0.1815 0 0 1-0.1818 0.1815h-0.0794a0.1818 0.1818 0 0 1-0.1815-0.1818v-0.5458a0.2463 0.2463 0 0 1-0.199-0.2416v-0.5006a0.2463 0.2463 0 0 1 0.2463-0.2453z"/><path d="m102.8 118.1a0.2397 0.2397 0 0 1-0.4792 0 0.2397 0.2397 0 0 1 0.2397-0.24 0.2397 0.2397 0 0 1 0.2394 0.24"/><path d="m99.87 119.5h0.3479a0.2463 0.2463 0 0 1 0.2461 0.2463v0.5006a0.2463 0.2463 0 0 1-0.199 0.2416v0.545a0.1818 0.1818 0 0 1-0.1815 0.1815h-0.0794a0.1815 0.1815 0 0 1-0.1815-0.1815v-0.5461a0.2463 0.2463 0 0 1-0.199-0.2413v-0.5006a0.2463 0.2463 0 0 1 0.2461-0.2455z"/><path d="m100.3 119.2a0.2394 0.2394 0 0 1-0.2394 0.2394 0.2394 0.2394 0 0 1-0.2397-0.2394 0.2394 0.2394 0 0 1 0.2397-0.2397 0.2394 0.2394 0 0 1 0.2394 0.2397"/></g><path d="m97.44 118.2h0.3479a0.2463 0.2463 0 0 1 0.2463 0.2466v0.5003a0.2461 0.2461 0 0 1-0.199 0.2416v0.545a0.1815 0.1815 0 0 1-0.1818 0.1815h-0.07937a0.1815 0.1815 0 0 1-0.1815-0.1815v-0.5458a0.2466 0.2466 0 0 1-0.199-0.2416v-0.5006a0.2463 0.2463 0 0 1 0.2463-0.2453z" fill="#c89108" stroke-width=".03222"/><path d="m97.86 117.9a0.2397 0.2397 0 1 1-0.4789 0 0.2397 0.2397 0 0 1 0.4789 0" fill="#c89108" stroke-width=".03222"/><g fill="#eee8d5" stroke-width=".03222"><path d="m96.96 115.4h0.3479a0.2463 0.2463 0 0 1 0.2463 0.2466v0.5003a0.2466 0.2466 0 0 1-0.199 0.2418v0.5448a0.1818 0.1818 0 0 1-0.1818 0.1818h-0.07937a0.1818 0.1818 0 0 1-0.1812-0.1818v-0.5458a0.2463 0.2463 0 0 1-0.1992-0.2416v-0.5006a0.2463 0.2463 0 0 1 0.2463-0.2455z"/><path d="m97.37 115.1a0.2397 0.2397 0 1 1-0.4794 0 0.2397 0.2397 0 0 1 0.4794 0"/><path d="m98.76 113.3h0.3479a0.2463 0.2463 0 0 1 0.2463 0.2463v0.5009a0.2463 0.2463 0 0 1-0.199 0.2416v0.545a0.1815 0.1815 0 0 1-0.1818 0.1815h-0.07937a0.1818 0.1818 0 0 1-0.1815-0.1815v-0.5461a0.2461 0.2461 0 0 1-0.199-0.2413v-0.5006a0.2463 0.2463 0 0 1 0.2463-0.2455z"/><path d="m99.18 113a0.2397 0.2397 0 1 1-0.4789 0 0.2397 0.2397 0 0 1 0.4789 0"/></g><g stroke-width=".03222"><path d="m101.6 113.5h0.3479a0.2463 0.2463 0 0 1 0.2463 0.2463v0.5006a0.2463 0.2463 0 0 1-0.199 0.2416v0.545a0.1815 0.1815 0 0 1-0.1818 0.1815h-0.0794a0.1815 0.1815 0 0 1-0.1815-0.1815v-0.5458a0.2463 0.2463 0 0 1-0.199-0.2418v-0.5003a0.2461 0.2461 0 0 1 0.2463-0.2455z" fill="#c89108"/><path d="m102 113.2a0.2397 0.2397 0 1 1-0.4792 0 0.2397 0.2397 0 0 1 0.4792 0" fill="#c89108"/><path d="m102.6 111.6h0.3479a0.2461 0.2461 0 0 1 0.2463 0.2466v0.5003a0.2463 0.2463 0 0 1-0.199 0.2416v0.545a0.1818 0.1818 0 0 1-0.1815 0.1818h-0.0794a0.1818 0.1818 0 0 1-0.1815-0.1818v-0.5458a0.2466 0.2466 0 0 1-0.1992-0.2418v-0.5003a0.2463 0.2463 0 0 1 0.2463-0.2455z" fill="#eee8d5"/><path d="m103 111.3a0.2394 0.2394 0 0 1-0.2397 0.2394 0.2397 0.2397 0 1 1 0.2397-0.2397" fill="#eee8d5"/><path d="m102 113.2a0.2397 0.2397 0 1 1-0.4792 0 0.2397 0.2397 0 0 1 0.4792 0m-0.4133 0.3141h0.3479a0.2463 0.2463 0 0 1 0.2463 0.2463v0.5006a0.2463 0.2463 0 0 1-0.199 0.2416v0.545a0.1815 0.1815 0 0 1-0.1818 0.1815h-0.0794a0.1815 0.1815 0 0 1-0.1815-0.1815v-0.5458a0.2463 0.2463 0 0 1-0.199-0.2418v-0.5003a0.2461 0.2461 0 0 1 0.2463-0.2455z" fill="#c89108"/></g><g transform="matrix(.2646 0 0 .2646 92.12 108.1)" fill="#c89108" stroke-width=".2828"><path transform="matrix(.05184 0 0 .05184 -53.73 28.59)" d="m1655 99.57h-16.3v16.3h-13.03v-16.3h-16.3v-13.03h16.3v-16.3h13.03v16.3h16.3zm-6.637-83.72h-32.71c-10.8 0-19.58 8.783-19.58 19.58h11.52c0-4.444 3.615-8.063 8.064-8.063h32.71c4.446 0 8.062 3.619 8.062 8.063h11.52c0-10.8-8.786-19.58-19.58-19.58z"/><path transform="matrix(.05184 0 0 .05184 -53.73 28.59)" d="m1694 38.81h-124.2a5.841 5.841 0 0 0-5.843 5.84v96.57a5.842 5.842 0 0 0 5.843 5.842h124.2a5.84 5.84 0 0 0 5.84-5.842v-96.57a5.84 5.84 0 0 0-5.84-5.84zm-62.11 92.04c-20.94 0-37.91-16.97-37.91-37.91 0-20.94 16.97-37.91 37.91-37.91 20.94 0 37.91 16.97 37.91 37.91 0 20.93-16.97 37.91-37.91 37.91z"/></g></g></svg>
