<?xml version="1.0" encoding="UTF-8"?>
<svg width="297mm" height="210mm" version="1.1" viewBox="0 0 297 210" xmlns="http://www.w3.org/2000/svg" xmlns:xlink="http://www.w3.org/1999/xlink"><defs><marker id="marker96487" overflow="visible" markerHeight="5.5999999" markerWidth="7.6999998" orient="auto-start-reverse" preserveAspectRatio="xMidYMid" viewBox="0 0 7.7 5.6"><path transform="scale(.7)" d="m-2-4 11 4-11 4c2-2.33 2-5.66 0-8z" fill="context-stroke" fill-rule="evenodd"/></marker><marker id="Arrow2" overflow="visible" markerHeight="5.5999999" markerWidth="7.6999998" orient="auto-start-reverse" preserveAspectRatio="xMidYMid" viewBox="0 0 7.7 5.6"><path id="arrow2L" transform="scale(.7)" d="m-2-4 11 4-11 4c2-2.33 2-5.66 0-8z" fill="context-stroke" fill-rule="evenodd"/></marker></defs><path d="m17.961 55.855a0.6825 0.6825 0 0 0-0.68359 0.68164v122.69a0.68257 0.68257 0 0 0 0.68359 0.68359h260.71a0.6825 0.6825 0 0 0 0.68165-0.68359 0.6825 0.6825 0 0 0-0.68165-0.68164h-260.03v-122a0.6825 0.6825 0 0 0-0.68164-0.68164z" color="#000000" fill="#808080" stroke-linecap="round" stroke-linejoin="round" style="paint-order:stroke fill markers"/><g stroke-linecap="round" stroke-linejoin="round"><path d="m20.016 23.98a0.60853 0.60853 0 0 0-0.60938 0.60742v152.48a0.60853 0.60853 0 0 0 0.60938 0.60742h63.24a0.60853 0.60853 0 0 0 0.60938-0.60742v-152.48a0.60853 0.60853 0 0 0-0.60938-0.60742zm0.60938 1.2168h62.023v151.26h-62.023z" color="#000000" fill="#fff" style="-inkscape-stroke:none;paint-order:stroke fill markers"/><path d="m20.016 24.588h63.24v152.48h-63.24z" color="#000000" fill="#e76f51" stroke-width="1.2169" style="-inkscape-stroke:none;paint-order:stroke fill markers"/></g><g stroke-linecap="round" stroke-linejoin="round"><path d="m83.127 23.98a0.60853 0.60853 0 0 0-0.60742 0.60742v152.48a0.60853 0.60853 0 0 0 0.60742 0.60742h63.242a0.60853 0.60853 0 0 0 0.60742-0.60742v-152.48a0.60853 0.60853 0 0 0-0.60742-0.60742zm0.60938 1.2168h62.023v151.26h-62.023z" color="#000000" fill="#fff" style="-inkscape-stroke:none;paint-order:stroke fill markers"/><path d="m83.128 24.588h63.24v152.48h-63.24z" color="#000000" fill="#f4a261" stroke-width="1.2169" style="-inkscape-stroke:none;paint-order:stroke fill markers"/></g><g stroke-linecap="round" stroke-linejoin="round"><path d="m146.24 23.98a0.60853 0.60853 0 0 0-0.60937 0.60742v152.48a0.60853 0.60853 0 0 0 0.60937 0.60742h63.24a0.60853 0.60853 0 0 0 0.60742-0.60742v-152.48a0.60853 0.60853 0 0 0-0.60742-0.60742zm0.60743 1.2168h62.023v151.26h-62.023z" color="#000000" fill="#fff" style="-inkscape-stroke:none;paint-order:stroke fill markers"/><path d="m146.24 24.588h63.24v152.48h-63.24z" color="#000000" fill="#e9c46a" stroke-width="1.2169" style="-inkscape-stroke:none;paint-order:stroke fill markers"/></g><g stroke-linecap="round" stroke-linejoin="round"><path d="m209.35 23.98a0.60853 0.60853 0 0 0-0.60742 0.60742v152.48a0.60853 0.60853 0 0 0 0.60742 0.60742h63.24a0.60853 0.60853 0 0 0 0.60937-0.60742v-152.48a0.60853 0.60853 0 0 0-0.60937-0.60742zm0.60938 1.2168h62.023v151.26h-62.023z" color="#000000" fill="#fff" style="-inkscape-stroke:none;paint-order:stroke fill markers"/><path d="m209.35 24.588h63.24v152.48h-63.24z" color="#000000" fill="#f4e0b3" stroke-width="1.2169" style="-inkscape-stroke:none;paint-order:stroke fill markers"/></g><g fill="#4d4d4d" stroke-linecap="round" stroke-linejoin="round" stroke-width="5.1591"><g transform="matrix(.26458 0 0 .26458 5.8208 -11.537)" style="paint-order:stroke fill markers;shape-inside:url(#rect51947);white-space:pre" aria-label="Age des pestes et des famines"><path d="m75.897 180.54 6.3516-17.062h3.2578l6.3867 17.062h-3.75l-1.1719-3.5156h-6.1758l-1.1719 3.5156zm5.8477-6.3633h4.2773l-2.1328-6.4102z"/><path d="m98.269 185.53q-1.1484 0-2.5312-0.48047-1.3711-0.48047-2.1914-1.5l1.5-2.0625q1.2539 1.4062 3.082 1.4062 1.3477 0 2.0977-0.72656 0.75-0.71484 0.75-2.0508v-0.67969q-1.1953 1.3359-3.082 1.3359-2.3555 0-3.7266-1.8047t-1.3945-4.5234v-0.33984q0-2.8945 1.3711-4.6875 1.3828-1.793 3.7734-1.793 2.0977 0 3.2578 1.4297l0.12891-1.1953h3.0703v12.246q0 2.6133-1.6992 4.0195-1.6875 1.4062-4.4062 1.4062zm-2.1094-11.18q0 1.5234 0.62109 2.6016 0.63281 1.0664 1.9688 1.0664 1.5469 0 2.2266-1.1719v-5.3203q-0.66797-1.1602-2.2031-1.1602-1.3242 0-1.9688 1.0898-0.64453 1.0781-0.64453 2.6484z"/><path d="m117.77 178.47q-0.60937 0.86719-1.8516 1.582-1.2422 0.71485-3.0938 0.71485-2.9531 0-4.6172-1.7812-1.6641-1.793-1.6758-4.3242v-0.49219q0-2.8711 1.5938-4.7109 1.6055-1.8398 4.3242-1.8398 2.7305 0 4.1602 1.7109t1.4297 4.5234v1.4414h-8.0742q0.17578 1.2305 0.97265 1.9922 0.79688 0.75 2.0977 0.75 1.9336 0 3.0586-1.418zm-5.3438-8.1211q-1.0781 0-1.6641 0.72656t-0.76172 1.8984h4.7109v-0.25781q-0.0234-1.0195-0.57422-1.6875-0.53906-0.67969-1.7109-0.67969z"/><path d="m133.76 180.54-0.16406-1.3476q-1.2539 1.582-3.2461 1.582-2.3555 0-3.6562-1.8281-1.3008-1.8281-1.3008-4.5938v-0.24609q0-2.8945 1.3008-4.6875t3.6797-1.793q1.8516 0 3.0469 1.3711v-6.457h3.3984v18zm-4.9688-6.1875q0 1.5234 0.53906 2.6016 0.53906 1.0664 1.875 1.0664 1.5469 0 2.2148-1.3125v-5.0273q-0.64453-1.3125-2.1914-1.3125-1.3242 0-1.8867 1.0781-0.55078 1.0781-0.55078 2.9062z"/><path d="m150.25 178.47q-0.60938 0.86719-1.8516 1.582-1.2422 0.71485-3.0938 0.71485-2.9531 0-4.6172-1.7812-1.6641-1.793-1.6758-4.3242v-0.49219q0-2.8711 1.5938-4.7109 1.6055-1.8398 4.3242-1.8398 2.7305 0 4.1602 1.7109 1.4297 1.7109 1.4297 4.5234v1.4414h-8.0742q0.17578 1.2305 0.97266 1.9922 0.79687 0.75 2.0976 0.75 1.9336 0 3.0586-1.418zm-5.3438-8.1211q-1.0781 0-1.6641 0.72656-0.58594 0.72656-0.76172 1.8984h4.7109v-0.25781q-0.0234-1.0195-0.57422-1.6875-0.53907-0.67969-1.7109-0.67969z"/><path d="m159.3 177.02q0-0.53906-0.5039-0.90235-0.49219-0.375-2.1328-0.72656-1.957-0.42187-3.2109-1.3125-1.2539-0.89062-1.2539-2.5195 0-1.582 1.3359-2.7539 1.3477-1.1836 3.7148-1.1836 2.4727 0 3.8906 1.1602 1.418 1.1602 1.418 2.9297h-3.3867q0-0.72656-0.46875-1.207t-1.4648-0.48047q-0.84375 0-1.3242 0.39844-0.46875 0.38672-0.46875 0.97266 0 0.53906 0.5039 0.89062 0.50391 0.35157 1.8633 0.6211 2.0625 0.41015 3.4219 1.2539 1.3594 0.84375 1.3594 2.7305 0 1.6758-1.4414 2.7774-1.4414 1.1016-3.8906 1.1016-2.6602 0-4.0664-1.3594-1.4062-1.3711-1.4062-2.918h3.2226q0.0469 0.9961 0.72656 1.4297 0.69141 0.4336 1.5938 0.4336 1.9688 0 1.9688-1.3359z"/><path d="m177.26 180.77q-1.8984 0-3.1055-1.3477v5.9883h-3.3984v-17.555h3.1524l0.1289 1.2305q1.207-1.4648 3.1875-1.4648 2.4141 0 3.6797 1.7695 1.2773 1.7695 1.2773 4.6641v0.2461q0 2.7656-1.2773 4.6172-1.2656 1.8516-3.6445 1.8516zm-0.91406-10.406q-1.582 0-2.1914 1.2305v5.1914q0.63281 1.2539 2.2148 1.2539 1.3242 0 1.875-1.0898 0.55078-1.1016 0.55078-2.8945 0-1.5703-0.57421-2.625-0.5625-1.0664-1.875-1.0664z"/><path d="m195.07 178.47q-0.60938 0.86719-1.8516 1.582-1.2422 0.71485-3.0938 0.71485-2.9531 0-4.6172-1.7812-1.6641-1.793-1.6758-4.3242v-0.49219q0-2.8711 1.5938-4.7109 1.6055-1.8398 4.3242-1.8398 2.7305 0 4.1602 1.7109 1.4297 1.7109 1.4297 4.5234v1.4414h-8.0742q0.17578 1.2305 0.97266 1.9922 0.79687 0.75 2.0976 0.75 1.9336 0 3.0586-1.418zm-5.3438-8.1211q-1.0781 0-1.6641 0.72656-0.58594 0.72656-0.76172 1.8984h4.7109v-0.25781q-0.0234-1.0195-0.57422-1.6875-0.53907-0.67969-1.7109-0.67969z"/><path d="m204.11 177.02q0-0.53906-0.5039-0.90235-0.49219-0.375-2.1328-0.72656-1.957-0.42187-3.2109-1.3125-1.2539-0.89062-1.2539-2.5195 0-1.582 1.3359-2.7539 1.3477-1.1836 3.7148-1.1836 2.4727 0 3.8906 1.1602 1.418 1.1602 1.418 2.9297h-3.3867q0-0.72656-0.46875-1.207t-1.4648-0.48047q-0.84375 0-1.3242 0.39844-0.46875 0.38672-0.46875 0.97266 0 0.53906 0.5039 0.89062 0.50391 0.35157 1.8633 0.6211 2.0625 0.41015 3.4219 1.2539 1.3594 0.84375 1.3594 2.7305 0 1.6758-1.4414 2.7774-1.4414 1.1016-3.8906 1.1016-2.6602 0-4.0664-1.3594-1.4062-1.3711-1.4062-2.918h3.2226q0.0469 0.9961 0.72656 1.4297 0.69141 0.4336 1.5938 0.4336 1.9688 0 1.9688-1.3359z"/><path d="m215.95 180.46q-0.94922 0.31641-2.0391 0.31641-1.6641 0-2.6484-0.86719-0.98437-0.86719-0.98437-2.8828v-6.6914h-1.8633v-2.4726h1.8633v-3.1289h3.3867v3.1289h2.1562v2.4726h-2.1562v6.3398q0 0.79687 0.32812 1.0547 0.32813 0.25782 0.97266 0.25782 0.51562 0 0.98437-0.0937z"/><path d="m228.5 178.47q-0.60937 0.86719-1.8516 1.582-1.2422 0.71485-3.0938 0.71485-2.9531 0-4.6172-1.7812-1.6641-1.793-1.6758-4.3242v-0.49219q0-2.8711 1.5938-4.7109 1.6055-1.8398 4.3242-1.8398 2.7305 0 4.1602 1.7109 1.4297 1.7109 1.4297 4.5234v1.4414h-8.0742q0.17578 1.2305 0.97265 1.9922 0.79688 0.75 2.0977 0.75 1.9336 0 3.0586-1.418zm-5.3438-8.1211q-1.0781 0-1.6641 0.72656t-0.76172 1.8984h4.7109v-0.25781q-0.0234-1.0195-0.57422-1.6875-0.53906-0.67969-1.7109-0.67969z"/><path d="m237.55 177.02q0-0.53906-0.50391-0.90235-0.49219-0.375-2.1328-0.72656-1.957-0.42187-3.2109-1.3125-1.2539-0.89062-1.2539-2.5195 0-1.582 1.3359-2.7539 1.3477-1.1836 3.7148-1.1836 2.4726 0 3.8906 1.1602 1.418 1.1602 1.418 2.9297h-3.3867q0-0.72656-0.46875-1.207t-1.4648-0.48047q-0.84375 0-1.3242 0.39844-0.46875 0.38672-0.46875 0.97266 0 0.53906 0.50391 0.89062 0.5039 0.35157 1.8633 0.6211 2.0625 0.41015 3.4219 1.2539 1.3594 0.84375 1.3594 2.7305 0 1.6758-1.4414 2.7774-1.4414 1.1016-3.8906 1.1016-2.6602 0-4.0664-1.3594-1.4062-1.3711-1.4062-2.918h3.2227q0.0469 0.9961 0.72656 1.4297 0.6914 0.4336 1.5938 0.4336 1.9688 0 1.9688-1.3359z"/><path d="m259.8 178.47q-0.60937 0.86719-1.8516 1.582-1.2422 0.71485-3.0938 0.71485-2.9531 0-4.6172-1.7812-1.6641-1.793-1.6758-4.3242v-0.49219q0-2.8711 1.5938-4.7109 1.6055-1.8398 4.3242-1.8398 2.7305 0 4.1602 1.7109t1.4297 4.5234v1.4414h-8.0742q0.17578 1.2305 0.97265 1.9922 0.79688 0.75 2.0977 0.75 1.9336 0 3.0586-1.418zm-5.3438-8.1211q-1.0781 0-1.6641 0.72656t-0.76172 1.8984h4.7109v-0.25781q-0.0234-1.0195-0.57422-1.6875-0.53906-0.67969-1.7109-0.67969z"/><path d="m268.33 180.46q-0.94921 0.31641-2.0391 0.31641-1.6641 0-2.6484-0.86719-0.98437-0.86719-0.98437-2.8828v-6.6914h-1.8633v-2.4726h1.8633v-3.1289h3.3867v3.1289h2.1562v2.4726h-2.1562v6.3398q0 0.79687 0.32812 1.0547 0.32813 0.25782 0.97266 0.25782 0.51562 0 0.98437-0.0937z"/><path d="m115.33 210.54-0.16406-1.3476q-1.2539 1.582-3.2461 1.582-2.3555 0-3.6562-1.8281-1.3008-1.8281-1.3008-4.5938v-0.24609q0-2.8945 1.3008-4.6875t3.6797-1.793q1.8516 0 3.0469 1.3711v-6.457h3.3984v18zm-4.9688-6.1875q0 1.5234 0.53907 2.6016 0.53906 1.0664 1.875 1.0664 1.5469 0 2.2148-1.3125v-5.0273q-0.64453-1.3125-2.1914-1.3125-1.3242 0-1.8867 1.0781-0.55079 1.0781-0.55079 2.9062z"/><path d="m131.82 208.47q-0.60938 0.86719-1.8516 1.582-1.2422 0.71485-3.0938 0.71485-2.9531 0-4.6172-1.7812-1.6641-1.793-1.6758-4.3242v-0.49219q0-2.8711 1.5938-4.7109 1.6055-1.8398 4.3242-1.8398 2.7305 0 4.1602 1.7109t1.4297 4.5234v1.4414h-8.0742q0.17578 1.2305 0.97265 1.9922 0.79688 0.75 2.0977 0.75 1.9336 0 3.0586-1.418zm-5.3438-8.1211q-1.0781 0-1.6641 0.72656-0.58593 0.72656-0.76172 1.8984h4.7109v-0.25781q-0.0234-1.0195-0.57422-1.6875-0.53906-0.67969-1.7109-0.67969z"/><path d="m140.87 207.02q0-0.53906-0.50391-0.90235-0.49218-0.375-2.1328-0.72656-1.957-0.42187-3.2109-1.3125-1.2539-0.89062-1.2539-2.5195 0-1.582 1.3359-2.7539 1.3476-1.1836 3.7148-1.1836 2.4727 0 3.8906 1.1602 1.418 1.1602 1.418 2.9297h-3.3867q0-0.72656-0.46875-1.207t-1.4648-0.48047q-0.84375 0-1.3242 0.39844-0.46875 0.38672-0.46875 0.97266 0 0.53906 0.50391 0.89062 0.5039 0.35157 1.8633 0.6211 2.0625 0.41015 3.4219 1.2539 1.3594 0.84375 1.3594 2.7305 0 1.6758-1.4414 2.7774-1.4414 1.1016-3.8906 1.1016-2.6602 0-4.0664-1.3594-1.4062-1.3711-1.4062-2.918h3.2227q0.0469 0.9961 0.72656 1.4297 0.69141 0.4336 1.5938 0.4336 1.9688 0 1.9688-1.3359z"/><path d="m159.17 200.33h-2.5195v10.207h-3.3984v-10.207h-1.8867v-2.4726h1.8867v-1.1016q0-2.168 1.2539-3.3164 1.2539-1.1484 3.3984-1.1484 0.82032 0 1.7344 0.23437l-0.0352 2.625q-0.44531-0.10546-1.043-0.10546-1.875 0-1.9102 1.6523v1.1602h2.5195z"/><path d="m168.28 210.54q-0.21094-0.44531-0.33985-1.1367-1.2305 1.3711-3.1992 1.3711-1.8164 0-3.0586-1.0664-1.2422-1.0781-1.2422-2.7305 0-1.9922 1.4766-3.082 1.4766-1.1016 4.3711-1.1016h1.5117v-0.73828q0-0.87891-0.45703-1.3945-0.44532-0.52735-1.418-0.52735-1.8164 0-1.8164 1.5234h-3.3867q0-1.6523 1.4648-2.8359 1.4648-1.1953 3.9258-1.1953 2.1914 0 3.6328 1.1133 1.4531 1.1133 1.4531 3.3398v5.6484q0.0234 1.6875 0.5039 2.6133v0.19922zm-2.8008-2.3555q0.85546 0 1.4531-0.375 0.60938-0.38671 0.86719-0.84375v-2.2031h-1.3828q-1.3477 0-1.9688 0.57422-0.6211 0.5625-0.6211 1.3945 0 0.63281 0.4336 1.043 0.44531 0.41015 1.2188 0.41015z"/><path d="m179.27 200.37q-1.4062 0-2.0742 1.1953v8.9766h-3.3984v-12.68h3.1875l0.11719 1.3945q1.3242-1.6289 3.6328-1.6289 2.4492 0 3.3633 1.9336 1.3008-1.9336 3.8086-1.9336 1.8281 0 2.9414 1.0781 1.1133 1.0781 1.125 3.7031v8.1328h-3.3984v-8.0859q0-1.2656-0.51562-1.6758-0.50391-0.41015-1.3828-0.41015-1.5 0-2.0976 1.418v8.7539h-3.3867v-8.0625q0-1.2539-0.51563-1.6758-0.51562-0.43359-1.4062-0.43359z"/><path d="m194.55 194.58q0-0.76172 0.51563-1.2539 0.51562-0.50391 1.3828-0.50391t1.3828 0.50391q0.51563 0.49219 0.51563 1.2539 0 0.75-0.51563 1.2539-0.51562 0.49219-1.3828 0.49219t-1.3828-0.49219q-0.51563-0.5039-0.51563-1.2539zm3.6094 3.2812v12.68h-3.3984v-12.68z"/><path d="m206.41 200.37q-1.4414 0-2.1445 1.2188v8.9531h-3.3867v-12.68h3.1758l0.11719 1.4531q1.3594-1.6875 3.6445-1.6875 1.793 0 2.8945 1.0664 1.1016 1.0664 1.1133 3.7148v8.1328h-3.3984v-8.0859q0-1.2188-0.52734-1.6524-0.51562-0.43359-1.4883-0.43359z"/><path d="m225.17 208.47q-0.60938 0.86719-1.8516 1.582-1.2422 0.71485-3.0938 0.71485-2.9531 0-4.6172-1.7812-1.6641-1.793-1.6758-4.3242v-0.49219q0-2.8711 1.5938-4.7109 1.6055-1.8398 4.3242-1.8398 2.7305 0 4.1602 1.7109t1.4297 4.5234v1.4414h-8.0742q0.17578 1.2305 0.97266 1.9922 0.79687 0.75 2.0976 0.75 1.9336 0 3.0586-1.418zm-5.3438-8.1211q-1.0781 0-1.6641 0.72656-0.58594 0.72656-0.76172 1.8984h4.7109v-0.25781q-0.0234-1.0195-0.57421-1.6875-0.53907-0.67969-1.7109-0.67969z"/><path d="m234.22 207.02q0-0.53906-0.5039-0.90235-0.49219-0.375-2.1328-0.72656-1.957-0.42187-3.2109-1.3125-1.2539-0.89062-1.2539-2.5195 0-1.582 1.3359-2.7539 1.3476-1.1836 3.7148-1.1836 2.4727 0 3.8906 1.1602 1.418 1.1602 1.418 2.9297h-3.3867q0-0.72656-0.46875-1.207t-1.4648-0.48047q-0.84375 0-1.3242 0.39844-0.46875 0.38672-0.46875 0.97266 0 0.53906 0.50391 0.89062 0.50391 0.35157 1.8633 0.6211 2.0625 0.41015 3.4219 1.2539 1.3594 0.84375 1.3594 2.7305 0 1.6758-1.4414 2.7774-1.4414 1.1016-3.8906 1.1016-2.6602 0-4.0664-1.3594-1.4062-1.3711-1.4062-2.918h3.2227q0.0469 0.9961 0.72656 1.4297 0.69141 0.4336 1.5938 0.4336 1.9688 0 1.9688-1.3359z"/></g><g transform="matrix(.26458 0 0 .26458 66.767 -11.534)" style="paint-order:stroke fill markers;shape-inside:url(#rect51947-3);white-space:pre" aria-label="Age de la récession des pandémies"><path d="m72.737 180.54 6.3516-17.062h3.2578l6.3867 17.062h-3.75l-1.1719-3.5156h-6.1758l-1.1719 3.5156zm5.8477-6.3633h4.2773l-2.1328-6.4102z"/><path d="m95.108 185.53q-1.1484 0-2.5312-0.48047-1.3711-0.48047-2.1914-1.5l1.5-2.0625q1.2539 1.4062 3.082 1.4062 1.3477 0 2.0977-0.72656 0.75-0.71484 0.75-2.0508v-0.67969q-1.1953 1.3359-3.082 1.3359-2.3555 0-3.7266-1.8047t-1.3945-4.5234v-0.33984q0-2.8945 1.3711-4.6875 1.3828-1.793 3.7734-1.793 2.0977 0 3.2578 1.4297l0.12891-1.1953h3.0703v12.246q0 2.6133-1.6992 4.0195-1.6875 1.4062-4.4062 1.4062zm-2.1094-11.18q0 1.5234 0.62109 2.6016 0.63281 1.0664 1.9688 1.0664 1.5469 0 2.2266-1.1719v-5.3203q-0.66797-1.1602-2.2031-1.1602-1.3242 0-1.9688 1.0898-0.64453 1.0781-0.64453 2.6484z"/><path d="m114.61 178.47q-0.60938 0.86719-1.8516 1.582-1.2422 0.71485-3.0938 0.71485-2.9531 0-4.6172-1.7812-1.6641-1.793-1.6758-4.3242v-0.49219q0-2.8711 1.5938-4.7109 1.6055-1.8398 4.3242-1.8398 2.7305 0 4.1602 1.7109t1.4297 4.5234v1.4414h-8.0742q0.17578 1.2305 0.97266 1.9922 0.79687 0.75 2.0976 0.75 1.9336 0 3.0586-1.418zm-5.3438-8.1211q-1.0781 0-1.6641 0.72656-0.58594 0.72656-0.76172 1.8984h4.7109v-0.25781q-0.0234-1.0195-0.57421-1.6875-0.53907-0.67969-1.7109-0.67969z"/><path d="m130.6 180.54-0.16406-1.3476q-1.2539 1.582-3.2461 1.582-2.3555 0-3.6562-1.8281-1.3008-1.8281-1.3008-4.5938v-0.24609q0-2.8945 1.3008-4.6875 1.3008-1.793 3.6797-1.793 1.8516 0 3.0469 1.3711v-6.457h3.3984v18zm-4.9688-6.1875q0 1.5234 0.53906 2.6016 0.53907 1.0664 1.875 1.0664 1.5469 0 2.2148-1.3125v-5.0273q-0.64453-1.3125-2.1914-1.3125-1.3242 0-1.8867 1.0781-0.55078 1.0781-0.55078 2.9062z"/><path d="m147.09 178.47q-0.60937 0.86719-1.8516 1.582-1.2422 0.71485-3.0938 0.71485-2.9531 0-4.6172-1.7812-1.6641-1.793-1.6758-4.3242v-0.49219q0-2.8711 1.5938-4.7109 1.6055-1.8398 4.3242-1.8398 2.7305 0 4.1602 1.7109 1.4297 1.7109 1.4297 4.5234v1.4414h-8.0742q0.17578 1.2305 0.97265 1.9922 0.79688 0.75 2.0977 0.75 1.9336 0 3.0586-1.418zm-5.3438-8.1211q-1.0781 0-1.6641 0.72656t-0.76172 1.8984h4.7109v-0.25781q-0.0234-1.0195-0.57422-1.6875-0.53906-0.67969-1.7109-0.67969z"/><path d="m158.83 162.54v18h-3.3984v-18z"/><path d="m168.96 180.54q-0.21094-0.44531-0.33984-1.1367-1.2305 1.3711-3.1992 1.3711-1.8164 0-3.0586-1.0664-1.2422-1.0781-1.2422-2.7305 0-1.9922 1.4766-3.082 1.4766-1.1016 4.3711-1.1016h1.5117v-0.73828q0-0.87891-0.45703-1.3945-0.44531-0.52735-1.418-0.52735-1.8164 0-1.8164 1.5234h-3.3867q0-1.6523 1.4648-2.8359 1.4648-1.1953 3.9258-1.1953 2.1914 0 3.6328 1.1133 1.4531 1.1133 1.4531 3.3398v5.6484q0.0234 1.6875 0.50391 2.6133v0.19922zm-2.8008-2.3555q0.85547 0 1.4531-0.375 0.60938-0.38671 0.86719-0.84375v-2.2031h-1.3828q-1.3477 0-1.9688 0.57422-0.62109 0.5625-0.62109 1.3945 0 0.63281 0.43359 1.043 0.44531 0.41015 1.2188 0.41015z"/><path d="m186.36 170.93q-1.9102 0-2.5078 1.3008v8.3086h-3.3984v-12.68h3.1992l0.10547 1.5117q0.9961-1.7461 2.8242-1.7461 0.64453 0 1.043 0.15234l-0.0352 3.2461z"/><path d="m199.79 178.47q-0.60937 0.86719-1.8516 1.582-1.2422 0.71485-3.0938 0.71485-2.9531 0-4.6172-1.7812-1.6641-1.793-1.6758-4.3242v-0.49219q0-2.8711 1.5938-4.7109 1.6055-1.8398 4.3242-1.8398 2.7305 0 4.1602 1.7109 1.4297 1.7109 1.4297 4.5234v1.4414h-8.0742q0.17579 1.2305 0.97266 1.9922 0.79688 0.75 2.0977 0.75 1.9336 0 3.0586-1.418zm-5.3438-8.1211q-1.0781 0-1.6641 0.72656t-0.76172 1.8984h4.7109v-0.25781q-0.0234-1.0195-0.57422-1.6875-0.53906-0.67969-1.7109-0.67969zm-1.9805-4.207 2.2969-3.6211h3.6914l-3.2461 3.6211z"/><path d="m207.25 178.04q0.92578 0 1.5234-0.50391 0.59766-0.51562 0.60938-1.3828h3.1875q-0.0234 2.0156-1.5469 3.3164-1.5117 1.3008-3.7148 1.3008-2.9414 0-4.4062-1.8516-1.4531-1.8633-1.4531-4.5586v-0.32812q0-2.6836 1.4531-4.5469 1.4531-1.8633 4.3945-1.8633 2.332 0 3.7852 1.3359 1.4648 1.3359 1.4883 3.6211h-3.1875q-0.0117-0.92578-0.5625-1.5703-0.55078-0.65625-1.582-0.65625-1.4766 0-1.9336 1.1133-0.45703 1.1016-0.45703 2.8945 0 1.4648 0.44532 2.5781 0.45703 1.1016 1.957 1.1016z"/><path d="m225.29 178.47q-0.60937 0.86719-1.8516 1.582-1.2422 0.71485-3.0938 0.71485-2.9531 0-4.6172-1.7812-1.6641-1.793-1.6758-4.3242v-0.49219q0-2.8711 1.5938-4.7109 1.6055-1.8398 4.3242-1.8398 2.7305 0 4.1602 1.7109 1.4297 1.7109 1.4297 4.5234v1.4414h-8.0742q0.17579 1.2305 0.97266 1.9922 0.79688 0.75 2.0977 0.75 1.9336 0 3.0586-1.418zm-5.3438-8.1211q-1.0781 0-1.6641 0.72656t-0.76172 1.8984h4.7109v-0.25781q-0.0234-1.0195-0.57422-1.6875-0.53906-0.67969-1.7109-0.67969z"/><path d="m234.34 177.02q0-0.53906-0.50391-0.90235-0.49219-0.375-2.1328-0.72656-1.957-0.42187-3.2109-1.3125-1.2539-0.89062-1.2539-2.5195 0-1.582 1.3359-2.7539 1.3477-1.1836 3.7148-1.1836 2.4726 0 3.8906 1.1602 1.418 1.1602 1.418 2.9297h-3.3867q0-0.72656-0.46875-1.207t-1.4648-0.48047q-0.84375 0-1.3242 0.39844-0.46875 0.38672-0.46875 0.97266 0 0.53906 0.5039 0.89062 0.50391 0.35157 1.8633 0.6211 2.0625 0.41015 3.4219 1.2539 1.3594 0.84375 1.3594 2.7305 0 1.6758-1.4414 2.7774-1.4414 1.1016-3.8906 1.1016-2.6602 0-4.0664-1.3594-1.4062-1.3711-1.4062-2.918h3.2226q0.0469 0.9961 0.72657 1.4297 0.6914 0.4336 1.5938 0.4336 1.9688 0 1.9688-1.3359z"/><path d="m246.69 177.02q0-0.53906-0.50391-0.90235-0.49218-0.375-2.1328-0.72656-1.957-0.42187-3.2109-1.3125-1.2539-0.89062-1.2539-2.5195 0-1.582 1.3359-2.7539 1.3477-1.1836 3.7148-1.1836 2.4726 0 3.8906 1.1602 1.418 1.1602 1.418 2.9297h-3.3867q0-0.72656-0.46875-1.207t-1.4648-0.48047q-0.84375 0-1.3242 0.39844-0.46875 0.38672-0.46875 0.97266 0 0.53906 0.50391 0.89062 0.5039 0.35157 1.8633 0.6211 2.0625 0.41015 3.4219 1.2539 1.3594 0.84375 1.3594 2.7305 0 1.6758-1.4414 2.7774-1.4414 1.1016-3.8906 1.1016-2.6602 0-4.0664-1.3594-1.4062-1.3711-1.4062-2.918h3.2227q0.0469 0.9961 0.72656 1.4297 0.69141 0.4336 1.5938 0.4336 1.9688 0 1.9688-1.3359z"/><path d="m252.15 164.58q0-0.76172 0.51562-1.2539 0.51563-0.50391 1.3828-0.50391 0.86719 0 1.3828 0.50391 0.51562 0.49219 0.51562 1.2539 0 0.75-0.51562 1.2539-0.51563 0.49219-1.3828 0.49219-0.86718 0-1.3828-0.49219-0.51562-0.5039-0.51562-1.2539zm3.6094 3.2812v12.68h-3.3984v-12.68z"/><path d="m258.01 174.08q0-2.7656 1.5703-4.6055 1.5703-1.8516 4.4297-1.8516 2.8945 0 4.4531 1.8516 1.5586 1.8398 1.5586 4.6055v0.2461q0 2.7656-1.5586 4.6055-1.5586 1.8398-4.4297 1.8398-2.8477 0-4.418-1.793-1.5586-1.793-1.6055-4.5zm3.3984 0.2461q0 1.5469 0.58594 2.6367 0.59765 1.0781 2.0391 1.0781 1.418 0 2.0039-1.0781 0.59765-1.0781 0.59765-2.8828 0-1.5117-0.59765-2.6133-0.58594-1.1133-2.0274-1.1133-1.4297 0-2.0156 1.1016-0.58594 1.1016-0.58594 2.8711z"/><path d="m277.58 170.37q-1.4414 0-2.1445 1.2188v8.9531h-3.3867v-12.68h3.1758l0.11718 1.4531q1.3594-1.6875 3.6445-1.6875 1.793 0 2.8945 1.0664 1.1016 1.0664 1.1133 3.7148v8.1328h-3.3984v-8.0859q0-1.2188-0.52734-1.6524-0.51563-0.43359-1.4883-0.43359z"/><path d="m105.77 210.54-0.16406-1.3476q-1.2539 1.582-3.2461 1.582-2.3555 0-3.6562-1.8281-1.3008-1.8281-1.3008-4.5938v-0.24609q0-2.8945 1.3008-4.6875 1.3008-1.793 3.6797-1.793 1.8516 0 3.0469 1.3711v-6.457h3.3984v18zm-4.9688-6.1875q0 1.5234 0.53906 2.6016 0.53907 1.0664 1.875 1.0664 1.5469 0 2.2148-1.3125v-5.0273q-0.64453-1.3125-2.1914-1.3125-1.3242 0-1.8867 1.0781-0.55078 1.0781-0.55078 2.9062z"/><path d="m122.26 208.47q-0.60937 0.86719-1.8516 1.582-1.2422 0.71485-3.0938 0.71485-2.9531 0-4.6172-1.7812-1.6641-1.793-1.6758-4.3242v-0.49219q0-2.8711 1.5938-4.7109 1.6055-1.8398 4.3242-1.8398 2.7305 0 4.1602 1.7109 1.4297 1.7109 1.4297 4.5234v1.4414h-8.0742q0.17579 1.2305 0.97266 1.9922 0.79688 0.75 2.0977 0.75 1.9336 0 3.0586-1.418zm-5.3438-8.1211q-1.0781 0-1.6641 0.72656t-0.76172 1.8984h4.7109v-0.25781q-0.0234-1.0195-0.57422-1.6875-0.53906-0.67969-1.7109-0.67969z"/><path d="m131.31 207.02q0-0.53906-0.50391-0.90235-0.49219-0.375-2.1328-0.72656-1.957-0.42187-3.2109-1.3125-1.2539-0.89062-1.2539-2.5195 0-1.582 1.3359-2.7539 1.3477-1.1836 3.7148-1.1836 2.4726 0 3.8906 1.1602 1.418 1.1602 1.418 2.9297h-3.3867q0-0.72656-0.46875-1.207t-1.4648-0.48047q-0.84375 0-1.3242 0.39844-0.46875 0.38672-0.46875 0.97266 0 0.53906 0.5039 0.89062 0.50391 0.35157 1.8633 0.6211 2.0625 0.41015 3.4219 1.2539 1.3594 0.84375 1.3594 2.7305 0 1.6758-1.4414 2.7774-1.4414 1.1016-3.8906 1.1016-2.6602 0-4.0664-1.3594-1.4062-1.3711-1.4062-2.918h3.2226q0.0469 0.9961 0.72657 1.4297 0.6914 0.4336 1.5938 0.4336 1.9688 0 1.9688-1.3359z"/><path d="m149.27 210.77q-1.8984 0-3.1055-1.3477v5.9883h-3.3984v-17.555h3.1524l0.1289 1.2305q1.207-1.4648 3.1875-1.4648 2.4141 0 3.6797 1.7695 1.2774 1.7695 1.2774 4.6641v0.2461q0 2.7656-1.2774 4.6172-1.2656 1.8516-3.6445 1.8516zm-0.91406-10.406q-1.582 0-2.1914 1.2305v5.1914q0.63281 1.2539 2.2148 1.2539 1.3242 0 1.875-1.0898 0.55078-1.1016 0.55078-2.8945 0-1.5703-0.57422-2.625-0.5625-1.0664-1.875-1.0664z"/><path d="m163.63 210.54q-0.21094-0.44531-0.33984-1.1367-1.2305 1.3711-3.1992 1.3711-1.8164 0-3.0586-1.0664-1.2422-1.0781-1.2422-2.7305 0-1.9922 1.4766-3.082 1.4766-1.1016 4.3711-1.1016h1.5117v-0.73828q0-0.87891-0.45703-1.3945-0.44531-0.52735-1.418-0.52735-1.8164 0-1.8164 1.5234h-3.3867q0-1.6523 1.4648-2.8359 1.4648-1.1953 3.9258-1.1953 2.1914 0 3.6328 1.1133 1.4531 1.1133 1.4531 3.3398v5.6484q0.0234 1.6875 0.5039 2.6133v0.19922zm-2.8008-2.3555q0.85547 0 1.4531-0.375 0.60938-0.38671 0.86719-0.84375v-2.2031h-1.3828q-1.3477 0-1.9688 0.57422-0.6211 0.5625-0.6211 1.3945 0 0.63281 0.4336 1.043 0.44531 0.41015 1.2188 0.41015z"/><path d="m174.62 200.37q-1.4414 0-2.1445 1.2188v8.9531h-3.3867v-12.68h3.1758l0.11719 1.4531q1.3594-1.6875 3.6445-1.6875 1.793 0 2.8945 1.0664 1.1016 1.0664 1.1133 3.7148v8.1328h-3.3984v-8.0859q0-1.2188-0.52734-1.6524-0.51563-0.43359-1.4883-0.43359z"/><path d="m190.43 210.54-0.16406-1.3476q-1.2539 1.582-3.2461 1.582-2.3555 0-3.6562-1.8281-1.3008-1.8281-1.3008-4.5938v-0.24609q0-2.8945 1.3008-4.6875 1.3008-1.793 3.6797-1.793 1.8516 0 3.0469 1.3711v-6.457h3.3984v18zm-4.9688-6.1875q0 1.5234 0.53906 2.6016 0.53907 1.0664 1.875 1.0664 1.5469 0 2.2148-1.3125v-5.0273q-0.64453-1.3125-2.1914-1.3125-1.3242 0-1.8867 1.0781-0.55078 1.0781-0.55078 2.9062z"/><path d="m206.92 208.47q-0.60937 0.86719-1.8516 1.582-1.2422 0.71485-3.0938 0.71485-2.9531 0-4.6172-1.7812-1.6641-1.793-1.6758-4.3242v-0.49219q0-2.8711 1.5938-4.7109 1.6055-1.8398 4.3242-1.8398 2.7305 0 4.1602 1.7109 1.4297 1.7109 1.4297 4.5234v1.4414h-8.0742q0.17579 1.2305 0.97266 1.9922 0.79688 0.75 2.0977 0.75 1.9336 0 3.0586-1.418zm-5.3438-8.1211q-1.0781 0-1.6641 0.72656t-0.76172 1.8984h4.7109v-0.25781q-0.0234-1.0195-0.57422-1.6875-0.53906-0.67969-1.7109-0.67969zm-1.9805-4.207 2.2969-3.6211h3.6914l-3.2461 3.6211z"/><path d="m214.57 200.37q-1.4062 0-2.0742 1.1953v8.9766h-3.3984v-12.68h3.1875l0.11719 1.3945q1.3242-1.6289 3.6328-1.6289 2.4492 0 3.3633 1.9336 1.3008-1.9336 3.8086-1.9336 1.8281 0 2.9414 1.0781 1.1133 1.0781 1.125 3.7031v8.1328h-3.3984v-8.0859q0-1.2656-0.51562-1.6758-0.50391-0.41015-1.3828-0.41015-1.5 0-2.0977 1.418v8.7539h-3.3867v-8.0625q0-1.2539-0.51562-1.6758-0.51563-0.43359-1.4062-0.43359z"/><path d="m229.85 194.58q0-0.76172 0.51562-1.2539 0.51563-0.50391 1.3828-0.50391 0.86719 0 1.3828 0.50391 0.51562 0.49219 0.51562 1.2539 0 0.75-0.51562 1.2539-0.51563 0.49219-1.3828 0.49219-0.86718 0-1.3828-0.49219-0.51562-0.5039-0.51562-1.2539zm3.6094 3.2812v12.68h-3.3984v-12.68z"/><path d="m247.03 208.47q-0.60937 0.86719-1.8516 1.582-1.2422 0.71485-3.0938 0.71485-2.9531 0-4.6172-1.7812-1.6641-1.793-1.6758-4.3242v-0.49219q0-2.8711 1.5938-4.7109 1.6055-1.8398 4.3242-1.8398 2.7305 0 4.1602 1.7109 1.4297 1.7109 1.4297 4.5234v1.4414h-8.0742q0.17578 1.2305 0.97265 1.9922 0.79688 0.75 2.0977 0.75 1.9336 0 3.0586-1.418zm-5.3438-8.1211q-1.0781 0-1.6641 0.72656t-0.76172 1.8984h4.7109v-0.25781q-0.0234-1.0195-0.57422-1.6875-0.53906-0.67969-1.7109-0.67969z"/><path d="m256.08 207.02q0-0.53906-0.50391-0.90235-0.49219-0.375-2.1328-0.72656-1.957-0.42187-3.2109-1.3125-1.2539-0.89062-1.2539-2.5195 0-1.582 1.3359-2.7539 1.3477-1.1836 3.7148-1.1836 2.4726 0 3.8906 1.1602 1.418 1.1602 1.418 2.9297h-3.3867q0-0.72656-0.46875-1.207t-1.4648-0.48047q-0.84375 0-1.3242 0.39844-0.46875 0.38672-0.46875 0.97266 0 0.53906 0.50391 0.89062 0.5039 0.35157 1.8633 0.6211 2.0625 0.41015 3.4219 1.2539 1.3594 0.84375 1.3594 2.7305 0 1.6758-1.4414 2.7774-1.4414 1.1016-3.8906 1.1016-2.6602 0-4.0664-1.3594-1.4062-1.3711-1.4062-2.918h3.2227q0.0469 0.9961 0.72656 1.4297 0.6914 0.4336 1.5938 0.4336 1.9688 0 1.9688-1.3359z"/></g><g transform="matrix(.26458 0 0 .26458 129.84 -11.537)" style="paint-order:stroke fill markers;shape-inside:url(#rect51947-3-7);white-space:pre" aria-label="Age des maladies dégénératives et sociétales"><path d="m82.663 180.54 6.3516-17.062h3.2578l6.3867 17.062h-3.75l-1.1719-3.5156h-6.1758l-1.1719 3.5156zm5.8477-6.3633h4.2773l-2.1328-6.4102z"/><path d="m105.03 185.53q-1.1484 0-2.5312-0.48047-1.3711-0.48047-2.1914-1.5l1.5-2.0625q1.2539 1.4062 3.082 1.4062 1.3477 0 2.0977-0.72656 0.75-0.71484 0.75-2.0508v-0.67969q-1.1953 1.3359-3.082 1.3359-2.3555 0-3.7266-1.8047-1.3711-1.8047-1.3945-4.5234v-0.33984q0-2.8945 1.3711-4.6875 1.3828-1.793 3.7734-1.793 2.0976 0 3.2578 1.4297l0.12891-1.1953h3.0703v12.246q0 2.6133-1.6992 4.0195-1.6875 1.4062-4.4062 1.4062zm-2.1094-11.18q0 1.5234 0.6211 2.6016 0.63281 1.0664 1.9688 1.0664 1.5469 0 2.2266-1.1719v-5.3203q-0.66797-1.1602-2.2031-1.1602-1.3242 0-1.9688 1.0898-0.64454 1.0781-0.64454 2.6484z"/><path d="m124.53 178.47q-0.60938 0.86719-1.8516 1.582-1.2422 0.71485-3.0938 0.71485-2.9531 0-4.6172-1.7812-1.6641-1.793-1.6758-4.3242v-0.49219q0-2.8711 1.5938-4.7109 1.6055-1.8398 4.3242-1.8398 2.7305 0 4.1602 1.7109 1.4297 1.7109 1.4297 4.5234v1.4414h-8.0742q0.17578 1.2305 0.97266 1.9922 0.79687 0.75 2.0976 0.75 1.9336 0 3.0586-1.418zm-5.3438-8.1211q-1.0781 0-1.6641 0.72656-0.58594 0.72656-0.76172 1.8984h4.7109v-0.25781q-0.0234-1.0195-0.57422-1.6875-0.53907-0.67969-1.7109-0.67969z"/><path d="m140.53 180.54-0.16406-1.3476q-1.2539 1.582-3.2461 1.582-2.3555 0-3.6562-1.8281-1.3008-1.8281-1.3008-4.5938v-0.24609q0-2.8945 1.3008-4.6875t3.6797-1.793q1.8516 0 3.0469 1.3711v-6.457h3.3984v18zm-4.9688-6.1875q0 1.5234 0.53907 2.6016 0.53906 1.0664 1.875 1.0664 1.5469 0 2.2148-1.3125v-5.0273q-0.64453-1.3125-2.1914-1.3125-1.3242 0-1.8867 1.0781-0.55078 1.0781-0.55078 2.9062z"/><path d="m157.02 178.47q-0.60937 0.86719-1.8516 1.582-1.2422 0.71485-3.0938 0.71485-2.9531 0-4.6172-1.7812-1.6641-1.793-1.6758-4.3242v-0.49219q0-2.8711 1.5938-4.7109 1.6055-1.8398 4.3242-1.8398 2.7305 0 4.1602 1.7109t1.4297 4.5234v1.4414h-8.0742q0.17578 1.2305 0.97265 1.9922 0.79688 0.75 2.0977 0.75 1.9336 0 3.0586-1.418zm-5.3438-8.1211q-1.0781 0-1.6641 0.72656t-0.76172 1.8984h4.7109v-0.25781q-0.0234-1.0195-0.57422-1.6875-0.53906-0.67969-1.7109-0.67969z"/><path d="m166.07 177.02q0-0.53906-0.50391-0.90235-0.49218-0.375-2.1328-0.72656-1.957-0.42187-3.2109-1.3125-1.2539-0.89062-1.2539-2.5195 0-1.582 1.3359-2.7539 1.3477-1.1836 3.7148-1.1836 2.4726 0 3.8906 1.1602 1.418 1.1602 1.418 2.9297h-3.3867q0-0.72656-0.46875-1.207t-1.4648-0.48047q-0.84375 0-1.3242 0.39844-0.46875 0.38672-0.46875 0.97266 0 0.53906 0.50391 0.89062 0.5039 0.35157 1.8633 0.6211 2.0625 0.41015 3.4219 1.2539 1.3594 0.84375 1.3594 2.7305 0 1.6758-1.4414 2.7774-1.4414 1.1016-3.8906 1.1016-2.6602 0-4.0664-1.3594-1.4062-1.3711-1.4062-2.918h3.2227q0.0469 0.9961 0.72656 1.4297 0.69141 0.4336 1.5938 0.4336 1.9688 0 1.9688-1.3359z"/><path d="m183 170.37q-1.4062 0-2.0742 1.1953v8.9766h-3.3984v-12.68h3.1875l0.11718 1.3945q1.3242-1.6289 3.6328-1.6289 2.4492 0 3.3633 1.9336 1.3008-1.9336 3.8086-1.9336 1.8281 0 2.9414 1.0781 1.1133 1.0781 1.125 3.7031v8.1328h-3.3984v-8.0859q0-1.2656-0.51562-1.6758-0.50391-0.41015-1.3828-0.41015-1.5 0-2.0976 1.418v8.7539h-3.3867v-8.0625q0-1.2539-0.51563-1.6758-0.51562-0.43359-1.4062-0.43359z"/><path d="m205.65 180.54q-0.21094-0.44531-0.33985-1.1367-1.2305 1.3711-3.1992 1.3711-1.8164 0-3.0586-1.0664-1.2422-1.0781-1.2422-2.7305 0-1.9922 1.4766-3.082 1.4766-1.1016 4.3711-1.1016h1.5117v-0.73828q0-0.87891-0.45703-1.3945-0.44532-0.52735-1.418-0.52735-1.8164 0-1.8164 1.5234h-3.3867q0-1.6523 1.4648-2.8359 1.4648-1.1953 3.9258-1.1953 2.1914 0 3.6328 1.1133 1.4531 1.1133 1.4531 3.3398v5.6484q0.0234 1.6875 0.5039 2.6133v0.19922zm-2.8008-2.3555q0.85546 0 1.4531-0.375 0.60938-0.38671 0.86719-0.84375v-2.2031h-1.3828q-1.3477 0-1.9688 0.57422-0.6211 0.5625-0.6211 1.3945 0 0.63281 0.4336 1.043 0.44531 0.41015 1.2188 0.41015z"/><path d="m214.76 162.54v18h-3.3984v-18z"/><path d="m224.88 180.54q-0.21094-0.44531-0.33985-1.1367-1.2305 1.3711-3.1992 1.3711-1.8164 0-3.0586-1.0664-1.2422-1.0781-1.2422-2.7305 0-1.9922 1.4766-3.082 1.4766-1.1016 4.3711-1.1016h1.5117v-0.73828q0-0.87891-0.45703-1.3945-0.44532-0.52735-1.418-0.52735-1.8164 0-1.8164 1.5234h-3.3867q0-1.6523 1.4648-2.8359 1.4648-1.1953 3.9258-1.1953 2.1914 0 3.6328 1.1133 1.4531 1.1133 1.4531 3.3398v5.6484q0.0234 1.6875 0.50391 2.6133v0.19922zm-2.8008-2.3555q0.85547 0 1.4531-0.375 0.60937-0.38671 0.86719-0.84375v-2.2031h-1.3828q-1.3476 0-1.9688 0.57422-0.62109 0.5625-0.62109 1.3945 0 0.63281 0.43359 1.043 0.44532 0.41015 1.2188 0.41015z"/><path d="m238.24 180.54-0.16406-1.3476q-1.2539 1.582-3.2461 1.582-2.3555 0-3.6562-1.8281-1.3008-1.8281-1.3008-4.5938v-0.24609q0-2.8945 1.3008-4.6875 1.3008-1.793 3.6797-1.793 1.8516 0 3.0469 1.3711v-6.457h3.3984v18zm-4.9688-6.1875q0 1.5234 0.53906 2.6016 0.53907 1.0664 1.875 1.0664 1.5469 0 2.2148-1.3125v-5.0273q-0.64453-1.3125-2.1914-1.3125-1.3242 0-1.8867 1.0781-0.55078 1.0781-0.55078 2.9062z"/><path d="m243.91 164.58q0-0.76172 0.51562-1.2539 0.51563-0.50391 1.3828-0.50391 0.86719 0 1.3828 0.50391 0.51562 0.49219 0.51562 1.2539 0 0.75-0.51562 1.2539-0.51563 0.49219-1.3828 0.49219-0.86718 0-1.3828-0.49219-0.51562-0.5039-0.51562-1.2539zm3.6094 3.2812v12.68h-3.3984v-12.68z"/><path d="m261.09 178.47q-0.60937 0.86719-1.8516 1.582-1.2422 0.71485-3.0938 0.71485-2.9531 0-4.6172-1.7812-1.6641-1.793-1.6758-4.3242v-0.49219q0-2.8711 1.5938-4.7109 1.6055-1.8398 4.3242-1.8398 2.7305 0 4.1602 1.7109 1.4297 1.7109 1.4297 4.5234v1.4414h-8.0742q0.17578 1.2305 0.97265 1.9922 0.79688 0.75 2.0977 0.75 1.9336 0 3.0586-1.418zm-5.3438-8.1211q-1.0781 0-1.6641 0.72656t-0.76172 1.8984h4.7109v-0.25781q-0.0234-1.0195-0.57422-1.6875-0.53906-0.67969-1.7109-0.67969z"/><path d="m270.14 177.02q0-0.53906-0.50391-0.90235-0.49219-0.375-2.1328-0.72656-1.957-0.42187-3.2109-1.3125-1.2539-0.89062-1.2539-2.5195 0-1.582 1.3359-2.7539 1.3477-1.1836 3.7148-1.1836 2.4726 0 3.8906 1.1602 1.418 1.1602 1.418 2.9297h-3.3867q0-0.72656-0.46875-1.207t-1.4648-0.48047q-0.84375 0-1.3242 0.39844-0.46875 0.38672-0.46875 0.97266 0 0.53906 0.50391 0.89062 0.5039 0.35157 1.8633 0.6211 2.0625 0.41015 3.4219 1.2539 1.3594 0.84375 1.3594 2.7305 0 1.6758-1.4414 2.7774-1.4414 1.1016-3.8906 1.1016-2.6602 0-4.0664-1.3594-1.4062-1.3711-1.4062-2.918h3.2227q0.0469 0.9961 0.72656 1.4297 0.6914 0.4336 1.5938 0.4336 1.9688 0 1.9688-1.3359z"/><path d="m97.722 210.54-0.16406-1.3476q-1.2539 1.582-3.2461 1.582-2.3555 0-3.6562-1.8281-1.3008-1.8281-1.3008-4.5938v-0.24609q0-2.8945 1.3008-4.6875 1.3008-1.793 3.6797-1.793 1.8516 0 3.0469 1.3711v-6.457h3.3984v18zm-4.9688-6.1875q0 1.5234 0.53906 2.6016 0.53906 1.0664 1.875 1.0664 1.5469 0 2.2148-1.3125v-5.0273q-0.64453-1.3125-2.1914-1.3125-1.3242 0-1.8867 1.0781-0.55078 1.0781-0.55078 2.9062z"/><path d="m114.21 208.47q-0.60937 0.86719-1.8516 1.582-1.2422 0.71485-3.0938 0.71485-2.9531 0-4.6172-1.7812-1.6641-1.793-1.6758-4.3242v-0.49219q0-2.8711 1.5938-4.7109 1.6055-1.8398 4.3242-1.8398 2.7305 0 4.1602 1.7109 1.4297 1.7109 1.4297 4.5234v1.4414h-8.0742q0.17578 1.2305 0.97266 1.9922 0.79687 0.75 2.0977 0.75 1.9336 0 3.0586-1.418zm-5.3438-8.1211q-1.0781 0-1.6641 0.72656t-0.76172 1.8984h4.7109v-0.25781q-0.0234-1.0195-0.57422-1.6875-0.53906-0.67969-1.7109-0.67969zm-1.9805-4.207 2.2969-3.6211h3.6914l-3.2461 3.6211z"/><path d="m121.39 215.53q-1.1484 0-2.5312-0.48047-1.3711-0.48047-2.1914-1.5l1.5-2.0625q1.2539 1.4062 3.082 1.4062 1.3477 0 2.0977-0.72656 0.75-0.71484 0.75-2.0508v-0.67969q-1.1953 1.3359-3.082 1.3359-2.3555 0-3.7266-1.8047-1.3711-1.8047-1.3945-4.5234v-0.33984q0-2.8945 1.3711-4.6875 1.3828-1.793 3.7734-1.793 2.0977 0 3.2578 1.4297l0.12891-1.1953h3.0703v12.246q0 2.6133-1.6992 4.0195-1.6875 1.4062-4.4062 1.4062zm-2.1094-11.18q0 1.5234 0.62109 2.6016 0.63282 1.0664 1.9688 1.0664 1.5469 0 2.2266-1.1719v-5.3203q-0.66797-1.1602-2.2031-1.1602-1.3242 0-1.9688 1.0898-0.64453 1.0781-0.64453 2.6484z"/><path d="m140.89 208.47q-0.60937 0.86719-1.8516 1.582-1.2422 0.71485-3.0938 0.71485-2.9531 0-4.6172-1.7812-1.6641-1.793-1.6758-4.3242v-0.49219q0-2.8711 1.5938-4.7109 1.6055-1.8398 4.3242-1.8398 2.7305 0 4.1602 1.7109t1.4297 4.5234v1.4414h-8.0742q0.17578 1.2305 0.97265 1.9922 0.79688 0.75 2.0977 0.75 1.9336 0 3.0586-1.418zm-5.3438-8.1211q-1.0781 0-1.6641 0.72656t-0.76172 1.8984h4.7109v-0.25781q-0.0234-1.0195-0.57422-1.6875-0.53906-0.67969-1.7109-0.67969zm-1.9805-4.207 2.2969-3.6211h3.6914l-3.2461 3.6211z"/><path d="m148.55 200.37q-1.4414 0-2.1445 1.2188v8.9531h-3.3867v-12.68h3.1758l0.11719 1.4531q1.3594-1.6875 3.6445-1.6875 1.793 0 2.8945 1.0664 1.1016 1.0664 1.1133 3.7148v8.1328h-3.3984v-8.0859q0-1.2188-0.52734-1.6524-0.51563-0.43359-1.4883-0.43359z"/><path d="m167.31 208.47q-0.60938 0.86719-1.8516 1.582-1.2422 0.71485-3.0938 0.71485-2.9531 0-4.6172-1.7812-1.6641-1.793-1.6758-4.3242v-0.49219q0-2.8711 1.5938-4.7109 1.6055-1.8398 4.3242-1.8398 2.7305 0 4.1602 1.7109t1.4297 4.5234v1.4414h-8.0742q0.17578 1.2305 0.97266 1.9922 0.79687 0.75 2.0976 0.75 1.9336 0 3.0586-1.418zm-5.3438-8.1211q-1.0781 0-1.6641 0.72656-0.58593 0.72656-0.76171 1.8984h4.7109v-0.25781q-0.0234-1.0195-0.57422-1.6875-0.53906-0.67969-1.7109-0.67969zm-1.9805-4.207 2.2969-3.6211h3.6914l-3.2461 3.6211z"/><path d="m175.39 200.93q-1.9102 0-2.5078 1.3008v8.3086h-3.3984v-12.68h3.1992l0.10547 1.5117q0.9961-1.7461 2.8242-1.7461 0.64453 0 1.043 0.15234l-0.0352 3.2461z"/><path d="m185.25 210.54q-0.21093-0.44531-0.33984-1.1367-1.2305 1.3711-3.1992 1.3711-1.8164 0-3.0586-1.0664-1.2422-1.0781-1.2422-2.7305 0-1.9922 1.4766-3.082 1.4766-1.1016 4.3711-1.1016h1.5117v-0.73828q0-0.87891-0.45703-1.3945-0.44531-0.52735-1.418-0.52735-1.8164 0-1.8164 1.5234h-3.3867q0-1.6523 1.4648-2.8359 1.4648-1.1953 3.9258-1.1953 2.1914 0 3.6328 1.1133 1.4531 1.1133 1.4531 3.3398v5.6484q0.0234 1.6875 0.50391 2.6133v0.19922zm-2.8008-2.3555q0.85547 0 1.4531-0.375 0.60937-0.38671 0.86718-0.84375v-2.2031h-1.3828q-1.3476 0-1.9688 0.57422-0.62109 0.5625-0.62109 1.3945 0 0.63281 0.43359 1.043 0.44531 0.41015 1.2188 0.41015z"/><path d="m197.12 210.46q-0.94922 0.31641-2.0391 0.31641-1.6641 0-2.6484-0.86719-0.98438-0.86719-0.98438-2.8828v-6.6914h-1.8633v-2.4726h1.8633v-3.1289h3.3867v3.1289h2.1562v2.4726h-2.1562v6.3398q0 0.79687 0.32813 1.0547 0.32812 0.25782 0.97265 0.25782 0.51563 0 0.98438-0.0937z"/><path d="m198.85 194.58q0-0.76172 0.51563-1.2539 0.51562-0.50391 1.3828-0.50391t1.3828 0.50391q0.51563 0.49219 0.51563 1.2539 0 0.75-0.51563 1.2539-0.51562 0.49219-1.3828 0.49219t-1.3828-0.49219q-0.51563-0.5039-0.51563-1.2539zm3.6094 3.2812v12.68h-3.3984v-12.68z"/><path d="m215.88 197.86-4.2774 12.68h-3.2226l-4.2891-12.68h3.5508l2.3555 8.5195 2.3438-8.5195z"/><path d="m228.02 208.47q-0.60937 0.86719-1.8516 1.582-1.2422 0.71485-3.0938 0.71485-2.9531 0-4.6172-1.7812-1.6641-1.793-1.6758-4.3242v-0.49219q0-2.8711 1.5938-4.7109 1.6055-1.8398 4.3242-1.8398 2.7305 0 4.1602 1.7109 1.4297 1.7109 1.4297 4.5234v1.4414h-8.0742q0.17578 1.2305 0.97266 1.9922 0.79687 0.75 2.0977 0.75 1.9336 0 3.0586-1.418zm-5.3438-8.1211q-1.0781 0-1.6641 0.72656t-0.76172 1.8984h4.7109v-0.25781q-0.0234-1.0195-0.57422-1.6875-0.53906-0.67969-1.7109-0.67969z"/><path d="m237.07 207.02q0-0.53906-0.50391-0.90235-0.49219-0.375-2.1328-0.72656-1.957-0.42187-3.2109-1.3125-1.2539-0.89062-1.2539-2.5195 0-1.582 1.3359-2.7539 1.3477-1.1836 3.7148-1.1836 2.4727 0 3.8906 1.1602 1.418 1.1602 1.418 2.9297h-3.3867q0-0.72656-0.46875-1.207t-1.4648-0.48047q-0.84375 0-1.3242 0.39844-0.46875 0.38672-0.46875 0.97266 0 0.53906 0.5039 0.89062 0.50391 0.35157 1.8633 0.6211 2.0625 0.41015 3.4219 1.2539 1.3594 0.84375 1.3594 2.7305 0 1.6758-1.4414 2.7774-1.4414 1.1016-3.8906 1.1016-2.6602 0-4.0664-1.3594-1.4062-1.3711-1.4062-2.918h3.2226q0.0469 0.9961 0.72657 1.4297 0.6914 0.4336 1.5938 0.4336 1.9688 0 1.9688-1.3359z"/><path d="m259.32 208.47q-0.60937 0.86719-1.8516 1.582-1.2422 0.71485-3.0938 0.71485-2.9531 0-4.6172-1.7812-1.6641-1.793-1.6758-4.3242v-0.49219q0-2.8711 1.5938-4.7109 1.6055-1.8398 4.3242-1.8398 2.7305 0 4.1602 1.7109 1.4297 1.7109 1.4297 4.5234v1.4414h-8.0742q0.17579 1.2305 0.97266 1.9922 0.79688 0.75 2.0977 0.75 1.9336 0 3.0586-1.418zm-5.3438-8.1211q-1.0781 0-1.6641 0.72656t-0.76172 1.8984h4.7109v-0.25781q-0.0234-1.0195-0.57422-1.6875-0.53906-0.67969-1.7109-0.67969z"/><path d="m267.85 210.46q-0.94922 0.31641-2.0391 0.31641-1.6641 0-2.6484-0.86719-0.98437-0.86719-0.98437-2.8828v-6.6914h-1.8633v-2.4726h1.8633v-3.1289h3.3867v3.1289h2.1562v2.4726h-2.1562v6.3398q0 0.79687 0.32812 1.0547 0.32813 0.25782 0.97266 0.25782 0.51562 0 0.98437-0.0937z"/><path d="m131.39 237.02q0-0.53906-0.50391-0.90235-0.49219-0.375-2.1328-0.72656-1.957-0.42187-3.2109-1.3125-1.2539-0.89062-1.2539-2.5195 0-1.582 1.3359-2.7539 1.3477-1.1836 3.7148-1.1836 2.4726 0 3.8906 1.1602 1.418 1.1602 1.418 2.9297h-3.3867q0-0.72656-0.46875-1.207t-1.4648-0.48047q-0.84375 0-1.3242 0.39844-0.46875 0.38672-0.46875 0.97266 0 0.53906 0.50391 0.89062 0.5039 0.35157 1.8633 0.6211 2.0625 0.41015 3.4219 1.2539 1.3594 0.84375 1.3594 2.7305 0 1.6758-1.4414 2.7774-1.4414 1.1016-3.8906 1.1016-2.6602 0-4.0664-1.3594-1.4062-1.3711-1.4062-2.918h3.2227q0.0469 0.9961 0.72656 1.4297 0.6914 0.4336 1.5938 0.4336 1.9688 0 1.9688-1.3359z"/><path d="m136.35 234.08q0-2.7656 1.5703-4.6055 1.5703-1.8516 4.4297-1.8516 2.8945 0 4.4531 1.8516 1.5586 1.8398 1.5586 4.6055v0.2461q0 2.7656-1.5586 4.6055-1.5586 1.8398-4.4297 1.8398-2.8477 0-4.418-1.793-1.5586-1.793-1.6055-4.5zm3.3984 0.2461q0 1.5469 0.58593 2.6367 0.59766 1.0781 2.0391 1.0781 1.418 0 2.0039-1.0781 0.59766-1.0781 0.59766-2.8828 0-1.5117-0.59766-2.6133-0.58593-1.1133-2.0273-1.1133-1.4297 0-2.0156 1.1016-0.58593 1.1016-0.58593 2.8711z"/><path d="m155.72 238.04q0.92578 0 1.5234-0.50391 0.59766-0.51562 0.60938-1.3828h3.1875q-0.0234 2.0156-1.5469 3.3164-1.5117 1.3008-3.7148 1.3008-2.9414 0-4.4062-1.8516-1.4531-1.8633-1.4531-4.5586v-0.32812q0-2.6836 1.4531-4.5469 1.4531-1.8633 4.3945-1.8633 2.332 0 3.7852 1.3359 1.4648 1.3359 1.4883 3.6211h-3.1875q-0.0117-0.92578-0.5625-1.5703-0.55079-0.65625-1.582-0.65625-1.4766 0-1.9336 1.1133-0.45703 1.1016-0.45703 2.8945 0 1.4648 0.44531 2.5781 0.45703 1.1016 1.957 1.1016z"/><path d="m162.95 224.58q0-0.76172 0.51563-1.2539 0.51562-0.50391 1.3828-0.50391t1.3828 0.50391q0.51563 0.49219 0.51563 1.2539 0 0.75-0.51563 1.2539-0.51562 0.49219-1.3828 0.49219t-1.3828-0.49219q-0.51563-0.5039-0.51563-1.2539zm3.6094 3.2812v12.68h-3.3984v-12.68z"/><path d="m180.13 238.47q-0.60938 0.86719-1.8516 1.582-1.2422 0.71485-3.0938 0.71485-2.9531 0-4.6172-1.7812-1.6641-1.793-1.6758-4.3242v-0.49219q0-2.8711 1.5938-4.7109 1.6055-1.8398 4.3242-1.8398 2.7305 0 4.1602 1.7109 1.4297 1.7109 1.4297 4.5234v1.4414h-8.0742q0.17578 1.2305 0.97266 1.9922 0.79687 0.75 2.0976 0.75 1.9336 0 3.0586-1.418zm-5.3438-8.1211q-1.0781 0-1.6641 0.72656-0.58594 0.72656-0.76172 1.8984h4.7109v-0.25781q-0.0234-1.0195-0.57422-1.6875-0.53907-0.67969-1.7109-0.67969zm-1.9805-4.207 2.2969-3.6211h3.6914l-3.2461 3.6211z"/><path d="m188.66 240.46q-0.94922 0.31641-2.0391 0.31641-1.6641 0-2.6484-0.86719-0.98438-0.86719-0.98438-2.8828v-6.6914h-1.8633v-2.4726h1.8633v-3.1289h3.3867v3.1289h2.1562v2.4726h-2.1562v6.3398q0 0.79687 0.32813 1.0547 0.32812 0.25782 0.97265 0.25782 0.51563 0 0.98438-0.0937z"/><path d="m197.76 240.54q-0.21094-0.44531-0.33985-1.1367-1.2305 1.3711-3.1992 1.3711-1.8164 0-3.0586-1.0664-1.2422-1.0781-1.2422-2.7305 0-1.9922 1.4766-3.082 1.4766-1.1016 4.3711-1.1016h1.5117v-0.73828q0-0.87891-0.45703-1.3945-0.44531-0.52735-1.418-0.52735-1.8164 0-1.8164 1.5234h-3.3867q0-1.6523 1.4648-2.8359 1.4648-1.1953 3.9258-1.1953 2.1914 0 3.6328 1.1133 1.4531 1.1133 1.4531 3.3398v5.6484q0.0234 1.6875 0.5039 2.6133v0.19922zm-2.8008-2.3555q0.85547 0 1.4531-0.375 0.60938-0.38671 0.86719-0.84375v-2.2031h-1.3828q-1.3477 0-1.9688 0.57422-0.6211 0.5625-0.6211 1.3945 0 0.63281 0.4336 1.043 0.44531 0.41015 1.2188 0.41015z"/><path d="m206.87 222.54v18h-3.3984v-18z"/><path d="m220.44 238.47q-0.60938 0.86719-1.8516 1.582-1.2422 0.71485-3.0938 0.71485-2.9531 0-4.6172-1.7812-1.6641-1.793-1.6758-4.3242v-0.49219q0-2.8711 1.5938-4.7109 1.6055-1.8398 4.3242-1.8398 2.7305 0 4.1602 1.7109 1.4297 1.7109 1.4297 4.5234v1.4414h-8.0742q0.17578 1.2305 0.97266 1.9922 0.79687 0.75 2.0976 0.75 1.9336 0 3.0586-1.418zm-5.3438-8.1211q-1.0781 0-1.6641 0.72656-0.58594 0.72656-0.76172 1.8984h4.7109v-0.25781q-0.0234-1.0195-0.57422-1.6875-0.53907-0.67969-1.7109-0.67969z"/><path d="m229.49 237.02q0-0.53906-0.5039-0.90235-0.49219-0.375-2.1328-0.72656-1.957-0.42187-3.2109-1.3125-1.2539-0.89062-1.2539-2.5195 0-1.582 1.3359-2.7539 1.3477-1.1836 3.7148-1.1836 2.4727 0 3.8906 1.1602 1.418 1.1602 1.418 2.9297h-3.3867q0-0.72656-0.46875-1.207t-1.4648-0.48047q-0.84375 0-1.3242 0.39844-0.46875 0.38672-0.46875 0.97266 0 0.53906 0.5039 0.89062 0.50391 0.35157 1.8633 0.6211 2.0625 0.41015 3.4219 1.2539 1.3594 0.84375 1.3594 2.7305 0 1.6758-1.4414 2.7774-1.4414 1.1016-3.8906 1.1016-2.6602 0-4.0664-1.3594-1.4062-1.3711-1.4062-2.918h3.2226q0.0469 0.9961 0.72656 1.4297 0.69141 0.4336 1.5938 0.4336 1.9688 0 1.9688-1.3359z"/></g></g><g fill="#666" stroke-dasharray="1.365, 2.73" stroke-linecap="round" stroke-linejoin="round" stroke-width="1.365" style="paint-order:stroke fill markers" aria-label="Temps"><path d="m136.16 183.57v-0.75344h3.6742v0.75344h-1.3798v3.761h-0.93017v-3.761z"/><path d="m142.89 186.79q-0.16123 0.22944-0.48989 0.41858-0.32867 0.18913-0.81856 0.18913-0.78135 0-1.2216-0.47129-0.44028-0.47439-0.44338-1.1441v-0.13023q0-0.75964 0.42168-1.2464 0.42478-0.48679 1.1441-0.48679 0.72244 0 1.1007 0.45268 0.37827 0.45269 0.37827 1.1968v0.38137h-2.1363q0.0465 0.32556 0.25735 0.5271 0.21084 0.19844 0.555 0.19844 0.5116 0 0.80926-0.37517zm-1.4139-2.1487q-0.28525 0-0.44028 0.19224t-0.20154 0.50229h1.2464v-0.0682q-6e-3 -0.26975-0.15193-0.44648-0.14263-0.17984-0.45269-0.17984z"/><path d="m144.91 184.64q-0.37207 0-0.5488 0.31626v2.375h-0.89917v-3.3548h0.84336l0.031 0.36897q0.35037-0.43098 0.96119-0.43098 0.64802 0 0.88986 0.51159 0.34417-0.51159 1.0077-0.51159 0.4837 0 0.77825 0.28525 0.29456 0.28525 0.29766 0.97978v2.1518h-0.89917v-2.1394q0-0.33487-0.13643-0.44339-0.13332-0.10852-0.36587-0.10852-0.39687 0-0.555 0.37517v2.3161h-0.89607v-2.1332q0-0.33176-0.13643-0.44339-0.13642-0.11472-0.37207-0.11472z"/><path d="m150.68 187.39q-0.50229 0-0.82165-0.35656v1.5844h-0.89917v-4.6447h0.83405l0.0341 0.32556q0.31936-0.38757 0.84336-0.38757 0.63872 0 0.97358 0.46818 0.33797 0.46819 0.33797 1.234v0.0651q0 0.73174-0.33797 1.2216-0.33486 0.48989-0.96428 0.48989zm-0.24184-2.7533q-0.41858 0-0.57981 0.32556v1.3736q0.16743 0.33177 0.58601 0.33177 0.35036 0 0.49609-0.28836 0.14573-0.29145 0.14573-0.76584 0-0.41548-0.15193-0.69453-0.14883-0.28216-0.49609-0.28216z"/><path d="m154.35 186.4q0-0.14263-0.13332-0.23875-0.13022-0.0992-0.56431-0.19224-0.51779-0.11162-0.84956-0.34726-0.33176-0.23565-0.33176-0.66663 0-0.41858 0.35347-0.72863 0.35656-0.31316 0.98288-0.31316 0.65423 0 1.0294 0.30695 0.37517 0.30696 0.37517 0.77515h-0.89607q0-0.19224-0.12402-0.31936-0.12403-0.12712-0.38758-0.12712-0.22324 0-0.35036 0.10542-0.12403 0.10232-0.12403 0.25734 0 0.14263 0.13333 0.23565 0.13332 0.093 0.49299 0.16433 0.5457 0.10852 0.90537 0.33176 0.35967 0.22325 0.35967 0.72244 0 0.44338-0.38137 0.73484-0.38137 0.29145-1.0294 0.29145-0.70383 0-1.0759-0.35966-0.37207-0.36277-0.37207-0.77205h0.85266q0.0124 0.26355 0.19224 0.37827 0.18293 0.11472 0.42168 0.11472 0.52089 0 0.52089-0.35346z"/></g><path d="m114.55 124.31a0.68257 0.68257 0 0 0-0.40821 0.43946l-0.13867 0.45703a0.68257 0.68257 0 0 0 0.26172 0.75781l1 0.69922a0.68257 0.68257 0 0 0 0.93945-0.1543l0.32617-0.43945a0.68257 0.68257 0 0 0-0.19726-0.99023l-1.1856-0.7168a0.68257 0.68257 0 0 0-0.59765-0.0527z" color="#000000" fill-opacity="0" stroke-linecap="round" stroke-linejoin="round" style="-inkscape-stroke:none;paint-order:stroke fill markers"/><g fill="#666" stroke-linecap="round" stroke-linejoin="round"><path d="m17.895 52.785a0.59471 0.59471 0 0 0-0.5293 0.32227l-1.4922 2.9219a0.59471 0.59471 0 0 0 0.5293 0.86523h2.9844a0.59471 0.59471 0 0 0 0.5293-0.86523l-1.4922-2.9219a0.59471 0.59471 0 0 0-0.5293-0.32227zm0 1.9004 0.52148 1.0195h-1.043z" color="#000000" style="-inkscape-stroke:none;paint-order:stroke fill markers"/><path d="m16.402 56.3 1.4926-2.9215 1.4926 2.9215z" color="#000000" stroke-width="1.1893" style="-inkscape-stroke:none;paint-order:stroke fill markers"/><path d="m276.55 177.21a0.59471 0.59471 0 0 0-0.86523 0.52929v2.9844a0.59471 0.59471 0 0 0 0.86523 0.5293l2.9199-1.4922a0.59471 0.59471 0 0 0 0-1.0586zm0.32227 1.5 1.0195 0.52148-1.0195 0.52149z" color="#000000" style="-inkscape-stroke:none;paint-order:stroke fill markers"/><path d="m276.28 177.73 2.9215 1.4926-2.9215 1.4926z" color="#000000" stroke-width="1.1893" style="-inkscape-stroke:none;paint-order:stroke fill markers"/></g><path id="path87652" d="m24.441 68.86s7.5132 6.5941 17.568 6.8321c10.055 0.23797 20.411-8.7217 36.901-8.9378 32.776-0.4295 70.226 7.5491 83.434 24.833 17.617 23.053 20.649 55.757 44.72 57.318 20.014 1.2978 30.443 7.0499 39.043 7.8164 8.5993 0.76654 15.368-3.4525 22.757-2.5953" fill="none" stroke="#023047" stroke-linecap="round" stroke-linejoin="round" stroke-width="1.465" style="paint-order:stroke fill markers"/><path d="m24.441 68.86s7.5132 6.5941 17.568 6.8321c10.055 0.23797 20.411-8.7217 36.901-8.9378 32.776-0.4295 70.226 7.5491 83.434 24.833 17.617 23.053 20.649 55.757 44.72 57.318 20.014 1.2978 29.763 6.8956 38.363 7.6622 8.5993 0.76654 16.048-3.2982 23.437-2.4411" fill="none" stroke="#023047" stroke-linecap="round" stroke-linejoin="round" stroke-width="1.465" style="paint-order:stroke fill markers"/><path id="path87652-6" d="m23.539 74.627s12.58-7.7073 22.635-7.4693c10.055 0.23797 14.418 7.0445 39.172 5.7402 32.733-1.7247 24.462 17.884 39.618 52.434 11.655 26.57 59.257 26.81 83.32 28.49 21.608 1.509 29.76-1.4565 37.731-1.2359 7.971 0.22065 14.895 5.5666 23.096 6.0363" fill="none" stroke="#800000" stroke-dasharray="1.465, 2.93" stroke-linecap="round" stroke-linejoin="round" stroke-width="1.465" style="paint-order:stroke fill markers"/><g><g font-family="sans-serif" font-size="6.35px" font-weight="bold" stroke="#800000" stroke-dasharray="1.465, 2.93" stroke-linecap="round" stroke-linejoin="round" stroke-width="1.465"><text transform="translate(1.0916 -2.7329)" fill="#023047" style="line-height:0.3;paint-order:stroke fill markers" xml:space="preserve"><textPath xlink:href="#path87652"><tspan fill="#023047" stroke="none" stroke-width="1.465">                                             Natalité </tspan></textPath></text><text fill="none" style="line-height:0.3;paint-order:stroke fill markers" xml:space="preserve"><textPath xlink:href="#path87652-6"><tspan fill="#800000" stroke="none"/></textPath></text><text transform="translate(-4.4511 7.1038)" fill="none" style="line-height:0.3;paint-order:stroke fill markers" xml:space="preserve"><textPath xlink:href="#path87652-6"><tspan fill="#800000" stroke="none" stroke-width="1.465">                                          Mortalité</tspan></textPath></text></g><path d="m143.25 92.154v37.136" fill="#023047" marker-end="url(#Arrow2)" marker-start="url(#marker96487)" stroke="#023047" stroke-linecap="round" stroke-linejoin="round" stroke-width="1.0288" style="paint-order:stroke fill markers"/><rect x="141.33" y="99.717" width="3.7302" height="22.01" fill="#f4a261" style="paint-order:stroke fill markers"/><text x="143.4088" y="106.07092" fill="#023047" font-family="sans-serif" font-size="6.35px" font-weight="bold" stroke-linecap="round" stroke-linejoin="round" stroke-width=".965" text-anchor="middle" style="line-height:1;paint-order:stroke fill markers" xml:space="preserve"><tspan x="143.4088" y="106.07092" text-align="center">Accroissement</tspan><tspan x="143.4088" y="112.42092" text-align="center">naturel de la</tspan><tspan x="143.4088" y="118.77092" text-align="center">population</tspan></text><text x="51.45953" y="163.64561" fill="#4d4d4d" font-family="sans-serif" font-size="6.35px" font-weight="bold" stroke-linecap="round" stroke-linejoin="round" stroke-width=".965" text-anchor="middle" style="line-height:1;paint-order:stroke fill markers" xml:space="preserve"><tspan x="51.45953" y="163.64561" text-align="center">Régime </tspan><tspan x="51.45953" y="169.99562" text-align="center">démographique</tspan><tspan x="51.45953" y="176.34561" text-align="center">traditionnel</tspan></text><rect x="145.11" y="165.96" width="1.1502" height="3.4003" fill="#f4a261" style="paint-order:stroke fill markers"/><g font-family="sans-serif" font-weight="bold"><g font-size="6.35px" stroke-linecap="round" stroke-linejoin="round"><text x="145.98592" y="169.3662" fill="#4d4d4d" stroke-width=".965" style="line-height:1;paint-order:stroke fill markers" xml:space="preserve"><tspan x="145.98592" y="169.3662" fill="#4d4d4d" stroke-width=".965" text-align="center" text-anchor="middle">Transition démographique</tspan></text><text transform="rotate(-90)" x="-119.18168" y="14.555996" fill="#666666" stroke-width=".965" style="line-height:1;paint-order:stroke fill markers" xml:space="preserve"><tspan x="-119.18168" y="14.555996" fill="#666666" stroke-width=".965" text-align="center" text-anchor="middle">Taux de natalité et de mortalité</tspan></text><text x="240.86989" y="163.64561" fill="#4d4d4d" stroke-width=".965" text-anchor="middle" style="line-height:1;paint-order:stroke fill markers" xml:space="preserve"><tspan x="240.86989" y="163.64561" text-align="center">Régime </tspan><tspan x="240.86989" y="169.99562" text-align="center">démographique</tspan><tspan x="240.86989" y="176.34561" text-align="center">moderne</tspan></text></g><text transform="translate(-9.2318 -12.58)" x="250.1433" y="48.680954" fill="#4d4d4d" font-size="6.1736px" text-align="center" text-anchor="middle" style="inline-size:66.8286;line-height:1;paint-order:stroke fill markers;white-space:pre" xml:space="preserve"/><text x="214.48616" y="45.976349" fill="#666666" font-size="6.35px" stroke-linecap="round" stroke-linejoin="round" stroke-width=".965" text-align="center" text-anchor="middle" style="line-height:0.3;paint-order:stroke fill markers" xml:space="preserve"><tspan stroke-width=".965"/></text></g></g></svg>
